# Blender v2.80 (sub 74) OBJ File: 'untitled.blend'
# www.blender.org
mtllib concrete_block.mtl
o Cube
v 0.173511 -0.890353 -2.000000
v 0.173511 -0.890353 2.000000
v 0.126581 -0.855531 -2.000000
v 0.126581 -0.855531 2.000000
v -0.126581 -0.855531 -2.000000
v -0.126581 -0.855531 2.000000
v -0.048252 -0.831458 -2.000000
v -0.048252 -0.831458 2.000000
v 0.048252 -0.831458 -2.000000
v 0.048252 -0.831458 2.000000
v -0.205956 -1.000000 2.000000
v -0.205956 -1.000000 -2.000000
v -0.205956 -0.948471 -2.000000
v -0.205956 -0.948471 2.000000
v 0.205956 -0.948471 -2.000000
v 0.205956 -0.948471 2.000000
v -0.173511 -0.890353 -2.000000
v -0.173511 -0.890353 2.000000
v 0.205956 -1.000000 -2.000000
v 0.205956 -1.000000 2.000000
v 0.932936 0.932936 -2.000000
v 0.932936 1.000000 -1.932936
v 1.000000 0.932936 -1.932936
v 0.932936 -1.000000 -2.000000
v 1.000000 -1.000000 -1.932936
v 1.000000 0.932936 1.932936
v 0.932936 1.000000 1.932936
v 0.932936 0.932936 2.000000
v 1.000000 -1.000000 1.932936
v 0.932936 -1.000000 2.000000
v -0.932936 0.932936 -2.000000
v -1.000000 0.932936 -1.932936
v -0.932936 1.000000 -1.932936
v -1.000000 -1.000000 -1.932936
v -0.932936 -1.000000 -2.000000
v -1.000000 0.932936 1.932936
v -0.932936 0.932936 2.000000
v -0.932936 1.000000 1.932936
v -0.932936 -1.000000 2.000000
v -1.000000 -1.000000 1.932936
vt 0.525745 1.000000
vt 0.525745 0.750000
vt 0.616617 0.750000
vt 0.625000 0.754192
vt 0.625000 0.995808
vt 0.616617 1.000000
vt 0.375000 0.504192
vt 0.616617 0.504192
vt 0.616617 0.745808
vt 0.375000 0.745808
vt 0.375000 0.754192
vt 0.383383 0.750000
vt 0.474255 0.750000
vt 0.474255 1.000000
vt 0.383383 1.000000
vt 0.375000 0.995808
vt 0.383383 0.004192
vt 0.616617 0.004192
vt 0.616617 0.245808
vt 0.383383 0.245808
vt 0.125000 0.504192
vt 0.366617 0.504192
vt 0.366617 0.745808
vt 0.125000 0.745808
vt 0.375000 0.258383
vt 0.616637 0.258383
vt 0.616637 0.491617
vt 0.375000 0.491617
vt 0.375000 0.400745
vt 0.385735 0.400745
vt 0.397843 0.396689
vt 0.405098 0.390823
vt 0.410113 0.381031
vt 0.410113 0.368969
vt 0.405098 0.359177
vt 0.397843 0.353311
vt 0.385735 0.349255
vt 0.375000 0.349255
vt 0.866637 0.741617
vt 0.875000 0.741617
vt 0.866617 0.750000
vt 0.375000 0.745808
vt 0.366617 0.750000
vt 0.866637 0.508383
vt 0.866617 0.500000
vt 0.875000 0.508383
vt 0.616617 0.500000
vt 0.625000 0.504192
vt 0.125000 0.500000
vt 0.366617 0.500000
vt 0.375000 0.250000
vt 0.616617 0.250000
vt 0.625000 0.508383
vt 0.625000 0.500000
vt 0.616617 0.250000
vt 0.383383 0.250000
vt 0.375000 0.245808
vt 0.375000 0.004192
vt 0.625000 0.004192
vt 0.625000 0.245808
vt 0.383383 0.000000
vt 0.616617 0.000000
vt 0.625000 0.741617
vt 0.625000 0.650745
vt 0.635735 0.650745
vt 0.647843 0.646689
vt 0.655098 0.640823
vt 0.660113 0.631031
vt 0.660113 0.618969
vt 0.655098 0.609177
vt 0.647843 0.603311
vt 0.635735 0.599255
vt 0.625000 0.599255
vt 0.423175 0.032269
vt 0.423175 0.217731
vt 0.470715 0.217731
vt 0.470715 0.032269
vt 0.576825 0.217731
vt 0.576825 0.032269
vt 0.529285 0.032269
vt 0.529285 0.217731
vt 0.246473 0.717731
vt 0.246473 0.532269
vt 0.154662 0.532269
vt 0.154662 0.717731
vt 0.496474 0.717731
vt 0.496473 0.532269
vt 0.404662 0.532269
vt 0.404662 0.717731
vt 0.394692 0.032269
vt 0.394692 0.217731
vt 0.307133 0.717731
vt 0.307133 0.532269
vt 0.557133 0.717731
vt 0.557133 0.532269
vt 0.605308 0.217731
vt 0.605308 0.032269
vn 0.0000 -1.0000 0.0000
vn -1.0000 0.0000 0.0000
vn 0.0000 1.0000 0.0000
vn 1.0000 0.0000 0.0000
vn 0.0000 -0.0000 1.0000
vn 0.5773 0.5774 -0.5774
vn 0.5773 0.5774 0.5774
vn -0.5773 0.5774 -0.5774
vn -0.5773 0.5774 0.5774
vn 0.7071 0.0000 -0.7071
vn -0.7071 0.0000 0.7071
vn 0.7071 0.0000 0.7071
vn -0.7071 0.0000 -0.7071
vn 0.0000 0.7071 0.7071
vn 0.7071 0.7071 0.0000
vn -0.7071 0.7071 0.0000
vn 0.0000 0.7071 -0.7071
vn 0.0000 0.0000 -1.0000
vn -0.3347 -0.6617 -0.6709
vn -0.3347 -0.6617 0.6709
vn -0.1096 -0.7295 0.6751
vn -0.1096 -0.7295 -0.6751
vn 0.3347 -0.6617 0.6709
vn 0.3347 -0.6617 -0.6709
vn 0.1096 -0.7295 -0.6751
vn 0.1096 -0.7295 0.6751
vn -0.7316 -0.1904 0.6546
vn -0.7316 -0.1904 -0.6546
vn -0.5773 -0.5773 -0.5773
vn -0.5773 -0.5773 0.5773
vn 0.7316 -0.1904 -0.6546
vn 0.7316 -0.1904 0.6546
vn 0.5773 -0.5773 0.5773
vn 0.5773 -0.5773 -0.5773
vn -0.5626 -0.4942 -0.6627
vn -0.5626 -0.4942 0.6627
vn 0.5626 -0.4942 -0.6627
vn 0.5626 -0.4942 0.6627
usemtl Material
s off
f 20/1/1 19/2/1 24/3/1 25/4/1 29/5/1 30/6/1
f 40/7/2 36/8/2 32/9/2 34/10/2
f 34/11/1 35/12/1 12/13/1 11/14/1 39/15/1 40/16/1
f 22/17/3 33/18/3 38/19/3 27/20/3
f 25/21/4 23/22/4 26/23/4 29/24/4
f 30/25/5 28/26/5 37/27/5 39/28/5 11/29/5 14/30/5 18/31/5 6/32/5 8/33/5 10/34/5 4/35/5 2/36/5 16/37/5 20/38/5
f 21/39/6 22/40/6 23/41/6
f 26/23/7 27/42/7 28/43/7
f 31/44/8 32/45/8 33/46/8
f 36/8/9 37/47/9 38/48/9
f 23/22/10 25/21/10 24/49/10 21/50/10
f 39/28/11 37/27/11 36/8/11 40/7/11
f 28/26/12 30/25/12 29/51/12 26/52/12
f 31/44/13 35/53/13 34/54/13 32/45/13
f 27/20/14 38/19/14 37/55/14 28/56/14
f 22/17/15 27/20/15 26/57/15 23/58/15
f 38/19/16 33/18/16 32/59/16 36/60/16
f 33/18/17 22/17/17 21/61/17 31/62/17
f 35/53/18 31/44/18 21/39/18 24/63/18 19/64/18 15/65/18 1/66/18 3/67/18 9/68/18 7/69/18 5/70/18 17/71/18 13/72/18 12/73/18
s 1
f 3/74/19 4/75/20 10/76/21 9/77/22
f 6/78/23 5/79/24 7/80/25 8/81/26
f 16/82/27 15/83/28 19/84/29 20/85/30
f 13/86/31 14/87/32 11/88/33 12/89/34
f 1/90/35 2/91/36 4/75/20 3/74/19
f 2/92/36 1/93/35 15/83/28 16/82/27
f 17/94/37 18/95/38 14/87/32 13/86/31
f 18/96/38 17/97/37 5/79/24 6/78/23
f 9/77/22 10/76/21 8/81/26 7/80/25
o Cube.001
v 0.205956 1.000000 0.363735
v -0.048252 1.185190 0.627728
v -0.126581 1.161116 0.593410
v -0.205956 1.000000 0.363735
v 0.048252 1.185190 0.627728
v -0.173511 1.126295 0.543772
v 0.205956 1.068176 0.460922
v -0.205956 1.068176 0.460922
v 0.173511 1.126295 0.543772
v 0.126581 1.161116 0.593410
v 0.205956 1.000000 1.636265
v -0.205956 1.000000 1.636265
v 0.205956 1.068176 1.539078
v -0.205956 1.068176 1.539078
v -0.173511 1.126295 1.456229
v 0.173511 1.126295 1.456229
v -0.126581 1.161116 1.406590
v 0.126581 1.161116 1.406590
v -0.048252 1.185190 1.372272
v 0.048252 1.185190 1.372272
vt 0.375000 0.758399
vt 0.625000 0.758399
vt 0.625000 0.991638
vt 0.375000 0.991638
vt 0.419705 0.849255
vt 0.379629 0.849255
vt 0.379629 0.900745
vt 0.419705 0.900745
vt 0.453869 0.896689
vt 0.474338 0.890823
vt 0.488489 0.881031
vt 0.488489 0.868969
vt 0.474338 0.859177
vt 0.453869 0.853311
vt 0.419705 0.349255
vt 0.379629 0.349255
vt 0.379629 0.400745
vt 0.419705 0.400745
vt 0.453869 0.396689
vt 0.474338 0.390823
vt 0.488489 0.381031
vt 0.488489 0.368969
vt 0.474338 0.359177
vt 0.453869 0.353311
vt 0.394692 0.043456
vt 0.423175 0.053122
vt 0.423175 0.200206
vt 0.394692 0.209048
vt 0.557133 0.706544
vt 0.496474 0.722676
vt 0.496473 0.526045
vt 0.557133 0.540952
vt 0.125000 0.508399
vt 0.246473 0.527324
vt 0.246473 0.723955
vt 0.125000 0.741638
vt 0.470715 0.059805
vt 0.529285 0.059805
vt 0.529285 0.194138
vt 0.470715 0.194138
vt 0.307133 0.709048
vt 0.307133 0.543456
vt 0.605308 0.209048
vt 0.576825 0.200206
vt 0.576825 0.053122
vt 0.605308 0.043456
vt 0.375000 0.508362
vt 0.375000 0.741601
vn 0.0000 -1.0000 0.0000
vn 0.0000 0.8187 -0.5743
vn 0.0000 0.8187 0.5743
vn 0.5116 0.8022 -0.3075
vn 0.3000 0.9132 -0.2756
vn 0.3000 0.9132 0.2756
vn 0.5116 0.8022 0.3075
vn -0.5116 0.8022 -0.3075
vn -0.7086 0.6012 -0.3692
vn -0.7086 0.6012 0.3692
vn -0.5116 0.8022 0.3075
vn 0.5430 -0.2528 -0.8007
vn 0.7086 0.6012 -0.3692
vn 0.7086 0.6012 0.3692
vn 0.5430 -0.2528 0.8007
vn 0.0988 0.9605 -0.2600
vn -0.0988 0.9605 -0.2600
vn -0.0988 0.9605 0.2600
vn 0.0988 0.9605 0.2600
vn -0.3000 0.9132 0.2756
vn -0.3000 0.9132 -0.2756
vn -0.5430 -0.2528 0.8007
vn -0.5430 -0.2528 -0.8007
usemtl Material.001
s off
f 44/98/39 41/99/39 51/100/39 52/101/39
f 47/102/40 41/103/40 44/104/40 48/105/40 46/106/40 43/107/40 42/108/40 45/109/40 50/110/40 49/111/40
f 54/112/41 52/113/41 51/114/41 53/115/41 56/116/41 58/117/41 60/118/41 59/119/41 57/120/41 55/121/41
s 1
f 49/122/42 50/123/43 58/124/44 56/125/45
f 46/126/46 48/127/47 54/128/48 55/129/49
f 41/130/50 47/131/51 53/132/52 51/133/53
f 45/134/54 42/135/55 59/136/56 60/137/57
f 50/123/43 45/134/54 60/137/57 58/124/44
f 56/138/45 53/132/52 47/131/51 49/139/42
f 55/140/49 57/141/58 43/142/59 46/143/46
f 52/144/60 54/128/48 48/127/47 44/145/61
f 57/141/58 59/136/56 42/135/55 43/142/59
o Cube.002
v 0.205956 1.000000 -0.363735
v -0.048252 1.185190 -0.627728
v -0.126581 1.161116 -0.593410
v -0.205956 1.000000 -0.363735
v 0.048252 1.185190 -0.627728
v -0.173511 1.126295 -0.543772
v 0.205956 1.068176 -0.460922
v -0.205956 1.068176 -0.460922
v 0.173511 1.126295 -0.543772
v 0.126581 1.161116 -0.593410
v 0.205956 1.000000 -1.636265
v 0.048252 1.185190 -1.372272
v -0.173511 1.126295 -1.456229
v -0.048252 1.185190 -1.372272
v 0.205956 1.068176 -1.539078
v 0.126581 1.161116 -1.406590
v -0.205956 1.068176 -1.539078
v -0.205956 1.000000 -1.636265
v -0.126581 1.161116 -1.406590
v 0.173511 1.126295 -1.456229
vt 0.419705 0.349255
vt 0.379629 0.349255
vt 0.379629 0.400745
vt 0.419705 0.400745
vt 0.453869 0.396689
vt 0.474338 0.390823
vt 0.488489 0.381031
vt 0.488489 0.368969
vt 0.474338 0.359177
vt 0.453869 0.353311
vt 0.375000 0.758362
vt 0.625000 0.758362
vt 0.625000 0.991601
vt 0.375000 0.991601
vt 0.419705 0.849255
vt 0.379629 0.849255
vt 0.379629 0.900745
vt 0.419705 0.900745
vt 0.453869 0.896689
vt 0.474338 0.890823
vt 0.488489 0.881031
vt 0.488489 0.868969
vt 0.474338 0.859177
vt 0.453869 0.853311
vt 0.576825 0.196878
vt 0.529285 0.190195
vt 0.529285 0.055862
vt 0.576825 0.049794
vt 0.605308 0.206544
vt 0.605308 0.040952
vt 0.375000 0.508399
vt 0.496473 0.527324
vt 0.496473 0.723955
vt 0.375000 0.741638
vt 0.307133 0.706544
vt 0.246473 0.722676
vt 0.246473 0.526045
vt 0.307133 0.540952
vt 0.125000 0.508362
vt 0.125000 0.741601
vt 0.394692 0.040952
vt 0.423175 0.049794
vt 0.423175 0.196878
vt 0.394692 0.206544
vt 0.557133 0.709048
vt 0.557133 0.543456
vt 0.470715 0.055862
vt 0.470715 0.190195
vn -0.0000 0.8187 0.5743
vn 0.0000 -1.0000 0.0000
vn 0.0000 0.8187 -0.5743
vn -0.3000 0.9132 0.2756
vn -0.0988 0.9605 0.2600
vn -0.0988 0.9605 -0.2600
vn -0.3000 0.9132 -0.2756
vn -0.5116 0.8022 0.3075
vn -0.5116 0.8022 -0.3075
vn -0.5430 -0.2528 0.8007
vn -0.7086 0.6012 0.3692
vn -0.7086 0.6012 -0.3692
vn -0.5430 -0.2528 -0.8007
vn 0.5116 0.8022 0.3075
vn 0.7086 0.6012 0.3692
vn 0.7086 0.6012 -0.3692
vn 0.5116 0.8022 -0.3075
vn 0.5430 -0.2528 -0.8007
vn 0.5430 -0.2528 0.8007
vn 0.3000 0.9132 -0.2756
vn 0.3000 0.9132 0.2756
vn 0.0988 0.9605 -0.2600
vn 0.0988 0.9605 0.2600
usemtl Material.002
s off
f 68/146/62 64/147/62 61/148/62 67/149/62 69/150/62 70/151/62 65/152/62 62/153/62 63/154/62 66/155/62
f 78/156/63 71/157/63 61/158/63 64/159/63
f 75/160/64 71/161/64 78/162/64 77/163/64 73/164/64 79/165/64 74/166/64 72/167/64 76/168/64 80/169/64
s 1
f 63/170/65 62/171/66 74/172/67 79/173/68
f 66/174/69 63/170/65 79/173/68 73/175/70
f 64/176/71 68/177/72 77/178/73 78/179/74
f 69/180/75 67/181/76 75/182/77 80/183/78
f 71/184/79 75/182/77 67/181/76 61/185/80
f 80/186/78 76/187/81 70/188/82 69/189/75
f 73/190/70 77/178/73 68/177/72 66/191/69
f 72/192/83 74/172/67 62/171/66 65/193/84
f 76/187/81 72/192/83 65/193/84 70/188/82
