# Blender v2.80 (sub 74) OBJ File: 'fortwars_atm.blend'
# www.blender.org
mtllib fortwars_atm.mtl
o Screen_Plane
v 0.557463 1.191270 1.352138
v 0.567138 0.112610 1.352707
v 0.567138 1.188319 -0.103392
v 0.557463 0.115275 -0.104684
v 0.578377 1.222316 0.008911
v 0.598231 1.241568 0.219926
v 0.612345 1.256811 0.426188
v 0.615375 1.262669 0.624349
v 0.606184 1.256976 0.823818
v 0.588256 1.242741 1.030591
v 0.568623 1.224840 1.240635
v 0.563412 1.108483 1.397233
v 0.574571 0.954179 1.418610
v 0.584358 0.801770 1.434397
v 0.589702 0.651688 1.440536
v 0.589016 0.502063 1.434451
v 0.582485 0.350128 1.418936
v 0.572021 0.195754 1.397991
v 0.578377 0.078773 1.239883
v 0.598231 0.060786 1.028859
v 0.612345 0.046458 0.822709
v 0.615375 0.040706 0.624349
v 0.606184 0.046737 0.425234
v 0.588256 0.062270 0.218046
v 0.568623 0.081517 0.007090
v 0.563412 0.197155 -0.149432
v 0.574571 0.350252 -0.170347
v 0.584358 0.501905 -0.185792
v 0.589702 0.651688 -0.191837
v 0.589016 0.801168 -0.185741
v 0.582485 0.952643 -0.170030
v 0.572021 1.106026 -0.148689
v 0.577905 1.117576 1.253067
v 0.596196 0.959486 1.270102
v 0.610855 0.803804 1.282405
v 0.618323 0.651688 1.286719
v 0.616771 0.500172 1.281529
v 0.606583 0.344978 1.268902
v 0.590240 0.186773 1.252080
v 0.606486 1.131993 1.037984
v 0.631867 0.968266 1.048000
v 0.651232 0.807411 1.054956
v 0.660252 0.651688 1.057037
v 0.656697 0.496429 1.053704
v 0.641469 0.335961 1.046045
v 0.618137 0.172163 1.035995
v 0.630831 1.143563 0.826711
v 0.661138 0.975330 0.830659
v 0.683808 0.810342 0.833356
v 0.693509 0.651688 0.834055
v 0.687238 0.493064 0.832584
v 0.667011 0.328267 0.829419
v 0.637903 0.160160 0.825420
v 0.642716 1.148253 0.624349
v 0.674553 0.978165 0.624349
v 0.697949 0.811509 0.624349
v 0.707050 0.651688 0.624349
v 0.697949 0.491411 0.624349
v 0.674553 0.324700 0.624349
v 0.642716 0.154951 0.624349
v 0.637903 1.143811 0.423880
v 0.667011 0.975678 0.420696
v 0.687238 0.810509 0.418442
v 0.693509 0.651688 0.417557
v 0.683808 0.492128 0.418162
v 0.661138 0.326784 0.420115
v 0.630831 0.159202 0.423031
v 0.618137 1.131364 0.213160
v 0.641469 0.968063 0.204021
v 0.656697 0.807317 0.197528
v 0.660252 0.651688 0.195032
v 0.651232 0.495315 0.197019
v 0.631867 0.334425 0.202941
v 0.606486 0.171797 0.211525
v 0.590240 1.115450 -0.003384
v 0.606583 0.958188 -0.020106
v 0.616771 0.803223 -0.032283
v 0.618323 0.651688 -0.036971
v 0.610855 0.499621 -0.032703
v 0.596196 0.344523 -0.021070
v 0.577905 0.187804 -0.004959
v 0.596029 1.191270 1.352138
v 0.605704 0.112610 1.352707
v 0.605704 1.188319 -0.103392
v 0.596029 0.115275 -0.104684
v 0.616944 1.222316 0.008911
v 0.636797 1.241568 0.219926
v 0.650911 1.256811 0.426188
v 0.653941 1.262669 0.624349
v 0.644750 1.256976 0.823818
v 0.626822 1.242741 1.030591
v 0.607189 1.224840 1.240635
v 0.601978 1.108483 1.397233
v 0.613137 0.954179 1.418610
v 0.622925 0.801770 1.434397
v 0.628268 0.651688 1.440536
v 0.627582 0.502063 1.434451
v 0.621051 0.350128 1.418936
v 0.610587 0.195754 1.397991
v 0.616944 0.078773 1.239883
v 0.636797 0.060786 1.028859
v 0.650911 0.046458 0.822709
v 0.653941 0.040706 0.624349
v 0.644750 0.046737 0.425234
v 0.626822 0.062270 0.218046
v 0.607189 0.081517 0.007090
v 0.601978 0.197155 -0.149432
v 0.613137 0.350252 -0.170347
v 0.622925 0.501905 -0.185792
v 0.628268 0.651688 -0.191837
v 0.627582 0.801168 -0.185741
v 0.621051 0.952643 -0.170030
v 0.610587 1.106026 -0.148689
v 0.741246 1.312038 1.518867
v 0.741246 -0.008407 1.518867
v 0.741246 1.312038 -0.270312
v 0.741246 -0.008407 -0.270312
v 0.741246 1.312038 -0.080645
v 0.741246 1.312038 0.161078
v 0.741246 1.312038 0.397357
v 0.741246 1.312038 0.624356
v 0.741246 1.312038 0.852853
v 0.741246 1.312038 1.089717
v 0.741246 1.312038 1.330329
v 0.741246 1.171531 1.518867
v 0.741246 0.995924 1.518867
v 0.741246 0.822475 1.518867
v 0.741246 0.651672 1.518867
v 0.741246 0.481391 1.518867
v 0.741246 0.308480 1.518867
v 0.741246 0.132795 1.518867
v 0.741246 -0.008407 1.329467
v 0.741246 -0.008407 1.087734
v 0.741246 -0.008407 0.851582
v 0.741246 -0.008407 0.624356
v 0.741246 -0.008407 0.396264
v 0.741246 -0.008407 0.158924
v 0.741246 -0.008407 -0.082731
v 0.741246 0.134389 -0.270312
v 0.741246 0.308622 -0.270312
v 0.741246 0.481212 -0.270312
v 0.741246 0.651672 -0.270312
v 0.741246 0.821790 -0.270312
v 0.741246 0.994176 -0.270312
v 0.741246 1.168734 -0.270312
v 0.741246 1.312196 -0.799306
v 0.741246 -0.008407 -0.799306
v 0.852574 -0.080694 1.612265
v 0.852574 -0.080694 -0.959762
v 0.852574 1.384523 1.612265
v 0.852574 1.384523 -0.959762
v 0.852574 -0.266127 1.805489
v 0.852574 1.569785 1.805489
v 0.852574 -0.265907 -1.217099
v 0.852574 1.569785 -1.217099
v -0.831141 -0.266127 1.805489
v -0.831141 1.569785 1.805489
v -0.831141 -0.265907 -1.217099
v -0.831141 1.569785 -1.217099
vt 1.000000 1.000000
vt 0.125000 1.000000
vt 0.000000 1.000000
vt 0.000000 1.000000
vt 1.000000 0.000000
vt 0.000000 0.000000
vt 0.875000 0.000000
vt 1.000000 0.000000
vt 1.000000 0.125000
vt 1.000000 1.000000
vt 1.000000 1.000000
vt 0.000000 1.000000
vt 0.000000 1.000000
vt 0.000000 0.000000
vt 1.000000 1.000000
vt 0.875000 0.000000
vt 1.000000 0.000000
vt 1.000000 1.000000
vt 1.000000 1.000000
vt 0.000000 1.000000
vt 0.000000 0.000000
vt 1.000000 1.000000
vt 0.000000 0.000000
vt 0.000000 1.000000
vt 0.125000 0.125000
vt 0.250000 0.125000
vt 0.250000 0.250000
vt 0.125000 0.250000
vt 0.375000 0.125000
vt 0.375000 0.250000
vt 0.500000 0.125000
vt 0.500000 0.250000
vt 0.625000 0.125000
vt 0.625000 0.250000
vt 0.750000 0.125000
vt 0.750000 0.250000
vt 0.875000 0.125000
vt 0.875000 0.250000
vt 0.250000 0.375000
vt 0.125000 0.375000
vt 0.375000 0.375000
vt 0.500000 0.375000
vt 0.625000 0.375000
vt 0.750000 0.375000
vt 0.875000 0.375000
vt 0.250000 0.500000
vt 0.125000 0.500000
vt 0.375000 0.500000
vt 0.500000 0.500000
vt 0.625000 0.500000
vt 0.750000 0.500000
vt 0.875000 0.500000
vt 0.250000 0.625000
vt 0.125000 0.625000
vt 0.375000 0.625000
vt 0.500000 0.625000
vt 0.625000 0.625000
vt 0.750000 0.625000
vt 0.875000 0.625000
vt 0.250000 0.750000
vt 0.125000 0.750000
vt 0.375000 0.750000
vt 0.500000 0.750000
vt 0.625000 0.750000
vt 0.750000 0.750000
vt 0.875000 0.750000
vt 0.250000 0.875000
vt 0.125000 0.875000
vt 0.375000 0.875000
vt 0.500000 0.875000
vt 0.625000 0.875000
vt 0.750000 0.875000
vt 0.875000 0.875000
vt 0.000000 0.000000
vt 0.125000 0.000000
vt 0.000000 0.125000
vt 0.250000 0.000000
vt 0.375000 0.000000
vt 0.500000 0.000000
vt 0.625000 0.000000
vt 0.750000 0.000000
vt 0.875000 0.000000
vt 1.000000 0.000000
vt 1.000000 0.125000
vt 1.000000 0.250000
vt 1.000000 0.375000
vt 1.000000 0.500000
vt 1.000000 0.625000
vt 1.000000 0.750000
vt 1.000000 0.875000
vt 1.000000 1.000000
vt 0.875000 1.000000
vt 0.750000 1.000000
vt 0.625000 1.000000
vt 0.500000 1.000000
vt 0.375000 1.000000
vt 0.250000 1.000000
vt 0.125000 1.000000
vt 0.000000 0.875000
vt 0.000000 1.000000
vt 0.000000 0.750000
vt 0.000000 0.625000
vt 0.000000 0.500000
vt 0.000000 0.375000
vt 0.000000 0.250000
vt 0.000000 0.125000
vt 0.000000 0.000000
vt 1.000000 0.625000
vt 1.000000 0.750000
vt 0.125000 0.000000
vt 1.000000 0.875000
vt 0.250000 0.000000
vt 1.000000 1.000000
vt 0.375000 0.000000
vt 0.875000 1.000000
vt 0.500000 0.000000
vt 0.750000 1.000000
vt 0.625000 0.000000
vt 0.625000 1.000000
vt 0.750000 0.000000
vt 0.000000 1.000000
vt 0.000000 0.875000
vt 0.500000 1.000000
vt 0.875000 0.000000
vt 0.000000 0.750000
vt 0.375000 1.000000
vt 1.000000 0.000000
vt 0.000000 0.625000
vt 0.250000 1.000000
vt 1.000000 0.125000
vt 0.000000 0.500000
vt 0.125000 1.000000
vt 1.000000 0.250000
vt 0.000000 0.375000
vt 1.000000 0.375000
vt 0.000000 0.250000
vt 1.000000 0.500000
vt 1.000000 1.000000
vt 0.875000 1.000000
vt 0.375000 0.000000
vt 0.500000 0.000000
vt 0.750000 1.000000
vt 0.625000 0.000000
vt 0.625000 1.000000
vt 0.750000 0.000000
vt 0.000000 1.000000
vt 0.000000 0.875000
vt 0.500000 1.000000
vt 0.875000 0.000000
vt 0.000000 0.750000
vt 0.375000 1.000000
vt 1.000000 0.000000
vt 0.000000 0.625000
vt 0.250000 1.000000
vt 1.000000 0.125000
vt 0.000000 0.500000
vt 0.125000 1.000000
vt 1.000000 0.250000
vt 0.000000 0.375000
vt 1.000000 0.375000
vt 0.000000 0.250000
vt 1.000000 0.500000
vt 0.000000 0.125000
vt 1.000000 0.625000
vt 0.000000 0.000000
vt 1.000000 0.750000
vt 0.125000 0.000000
vt 1.000000 0.875000
vt 0.250000 0.000000
vt 0.875000 0.000000
vt 0.125000 1.000000
vn 0.8216 0.0000 0.5701
vn 1.0000 -0.0000 -0.0000
vn 0.0000 0.0000 1.0000
vn 0.0000 -1.0000 -0.0001
vn 0.0000 0.0000 -1.0000
vn -0.0000 1.0000 0.0000
vn -1.0000 0.0000 0.0000
vn 0.9834 0.1264 0.1301
vn 0.9817 0.1151 0.1514
vn 0.9790 0.1402 0.1478
vn 0.9788 0.1599 0.1281
vn 0.9822 0.0778 0.1708
vn 0.9832 0.0906 0.1587
vn 0.9839 0.0172 0.1781
vn 0.9868 0.0155 0.1609
vn 0.9837 -0.0483 0.1732
vn 0.9861 -0.0639 0.1535
vn 0.9827 -0.0982 0.1570
vn 0.9826 -0.1235 0.1384
vn 0.9821 -0.1285 0.1371
vn 0.9798 -0.1614 0.1179
vn 0.9828 0.1549 0.1005
vn 0.9774 0.1913 0.0901
vn 0.9897 0.0970 0.1053
vn 0.9946 0.0094 0.1035
vn 0.9922 -0.0811 0.0939
vn 0.9861 -0.1452 0.0799
vn 0.9793 -0.1914 0.0655
vn 0.9875 0.1570 0.0132
vn 0.9792 0.2025 0.0157
vn 0.9955 0.0941 0.0072
vn 1.0000 0.0000 -0.0004
vn 0.9955 -0.0940 -0.0077
vn 0.9875 -0.1572 -0.0131
vn 0.9791 -0.2027 -0.0155
vn 0.9862 0.1447 -0.0797
vn 0.9792 0.1918 -0.0655
vn 0.9923 0.0806 -0.0940
vn 0.9945 -0.0094 -0.1039
vn 0.9897 -0.0966 -0.1058
vn 0.9828 -0.1547 -0.1008
vn 0.9772 -0.1919 -0.0905
vn 0.9827 0.1230 -0.1382
vn 0.9796 0.1620 -0.1184
vn 0.9862 0.0631 -0.1529
vn 0.9869 -0.0157 -0.1602
vn 0.9833 -0.0901 -0.1581
vn 0.9791 -0.1398 -0.1477
vn 0.9786 -0.1603 -0.1285
vn 0.9827 0.0982 -0.1570
vn 0.9819 0.1296 -0.1378
vn 0.9839 0.0478 -0.1724
vn 0.9841 -0.0174 -0.1768
vn 0.9825 -0.0775 -0.1696
vn 0.9818 -0.1150 -0.1509
vn 0.9833 -0.1268 -0.1301
vn 0.6979 -0.5621 -0.4438
vn 0.7176 -0.1775 -0.6734
vn 0.7300 -0.6804 -0.0637
vn 0.7527 -0.0173 -0.6581
vn 0.7544 -0.0045 -0.6564
vn 0.7538 0.0125 -0.6569
vn 0.7559 0.0257 -0.6541
vn 0.7560 0.0281 -0.6540
vn 0.7234 0.1772 -0.6673
vn 0.7017 0.5606 -0.4396
vn 0.7351 0.6753 -0.0596
vn 0.7624 0.6468 0.0211
vn 0.7689 0.6393 0.0050
vn 0.7692 0.6388 -0.0118
vn 0.7673 0.6409 -0.0224
vn 0.7598 0.6496 -0.0252
vn 0.7309 0.6793 0.0660
vn 0.6983 0.5618 0.4435
vn 0.7173 0.1772 0.6738
vn 0.7524 0.0159 0.6584
vn 0.7542 0.0036 0.6566
vn 0.7535 -0.0129 0.6572
vn 0.7556 -0.0266 0.6545
vn 0.7559 -0.0298 0.6540
vn 0.7237 -0.1796 0.6663
vn 0.7361 -0.6740 0.0621
vn 0.7030 -0.5600 0.4383
vn 0.7628 -0.6463 -0.0175
vn 0.7688 -0.6395 -0.0031
vn 0.7693 -0.6387 0.0128
vn 0.7673 -0.6407 0.0252
vn 0.7593 -0.6501 0.0294
vn 0.3096 -0.9444 -0.1102
vn 0.4346 -0.7180 -0.5437
vn 0.2647 0.9639 0.0289
vn 0.2758 0.9600 0.0480
vn 0.3920 -0.1976 -0.8985
vn 0.3157 0.9421 0.1127
vn 0.3318 -0.0756 -0.9403
vn 0.4378 0.7146 0.5456
vn 0.3142 -0.0438 -0.9483
vn 0.3909 0.1967 0.8992
vn 0.3103 0.0023 -0.9506
vn 0.3310 0.0743 0.9407
vn 0.3232 0.0470 -0.9451
vn 0.3141 0.0429 0.9484
vn 0.3459 0.0756 -0.9352
vn 0.4574 -0.7096 0.5360
vn 0.3329 -0.9363 0.1117
vn 0.3106 -0.0025 0.9505
vn 0.4062 0.1974 -0.8921
vn 0.2947 -0.9543 0.0480
vn 0.3238 -0.0475 0.9449
vn 0.4538 0.7118 -0.5359
vn 0.2780 -0.9601 0.0311
vn 0.3470 -0.0772 0.9347
vn 0.3269 0.9387 -0.1089
vn 0.2654 -0.9641 0.0023
vn 0.4078 -0.1995 0.8910
vn 0.2904 0.9558 -0.0445
vn 0.2635 -0.9643 -0.0262
vn 0.2758 0.9607 -0.0295
vn 0.2717 -0.9614 -0.0438
vn 0.2647 0.9643 -0.0015
vn 0.7976 0.5889 0.1304
vn 0.9234 0.0426 0.3815
vn 0.6171 -0.0070 -0.7868
vn 0.6118 0.0020 -0.7909
vn 0.9017 0.0133 0.4321
vn 0.6243 0.0100 -0.7811
vn 0.8918 0.0075 0.4523
vn 0.6457 0.0128 -0.7634
vn 0.8033 -0.5825 0.1235
vn 0.5933 -0.8046 0.0212
vn 0.8890 -0.0023 0.4579
vn 0.6870 0.0393 -0.7255
vn 0.5560 -0.8311 0.0050
vn 0.8962 -0.0113 0.4434
vn 0.7460 0.4984 -0.4416
vn 0.5380 -0.8429 0.0050
vn 0.9084 -0.0145 0.4178
vn 0.5882 0.8084 -0.0212
vn 0.5236 -0.8519 0.0018
vn 0.9302 -0.0420 0.3646
vn 0.5513 0.8343 -0.0043
vn 0.5247 -0.8513 -0.0022
vn 0.5354 0.8445 -0.0046
vn 0.5365 -0.8439 -0.0045
vn 0.5224 0.8527 -0.0016
vn 0.5740 -0.8185 -0.0226
vn 0.5255 0.8508 0.0030
vn 0.7393 -0.5031 -0.4475
vn 0.5402 0.8415 0.0054
vn 0.6756 -0.0399 -0.7362
vn 0.5784 0.8154 0.0226
vn 0.6352 -0.0123 -0.7723
vn 0.9812 -0.1325 -0.1400
vn 0.9812 0.1325 -0.1402
vn 0.8875 -0.4065 0.2170
vn 0.8875 0.4065 0.2170
vn 0.9892 -0.0941 0.1126
vn 0.9891 0.0942 0.1126
usemtl None
s off
f 147/1/1 149/2/1 151/3/1 146/4/1
f 148/5/2 150/6/2 153/7/2 152/8/2
f 149/9/2 148/5/2 152/10/2 154/11/2
f 150/12/2 151/3/2 155/13/2 153/14/2
f 149/15/2 154/11/2 155/13/2 151/3/2
f 152/8/3 153/7/3 157/16/3 156/17/3
f 154/11/4 152/10/4 156/18/4 158/19/4
f 155/13/5 154/11/5 158/19/5 159/20/5
f 153/14/6 155/13/6 159/20/6 157/21/6
f 159/22/7 158/19/7 156/23/7 157/24/7
s 1
f 33/25/8 34/26/9 41/27/10 40/28/11
f 34/26/9 35/29/12 42/30/13 41/27/10
f 35/29/12 36/31/14 43/32/15 42/30/13
f 36/31/14 37/33/16 44/34/17 43/32/15
f 37/33/16 38/35/18 45/36/19 44/34/17
f 38/35/18 39/37/20 46/38/21 45/36/19
f 40/28/11 41/27/10 48/39/22 47/40/23
f 41/27/10 42/30/13 49/41/24 48/39/22
f 42/30/13 43/32/15 50/42/25 49/41/24
f 43/32/15 44/34/17 51/43/26 50/42/25
f 44/34/17 45/36/19 52/44/27 51/43/26
f 45/36/19 46/38/21 53/45/28 52/44/27
f 47/40/23 48/39/22 55/46/29 54/47/30
f 48/39/22 49/41/24 56/48/31 55/46/29
f 49/41/24 50/42/25 57/49/32 56/48/31
f 50/42/25 51/43/26 58/50/33 57/49/32
f 51/43/26 52/44/27 59/51/34 58/50/33
f 52/44/27 53/45/28 60/52/35 59/51/34
f 54/47/30 55/46/29 62/53/36 61/54/37
f 55/46/29 56/48/31 63/55/38 62/53/36
f 56/48/31 57/49/32 64/56/39 63/55/38
f 57/49/32 58/50/33 65/57/40 64/56/39
f 58/50/33 59/51/34 66/58/41 65/57/40
f 59/51/34 60/52/35 67/59/42 66/58/41
f 61/54/37 62/53/36 69/60/43 68/61/44
f 62/53/36 63/55/38 70/62/45 69/60/43
f 63/55/38 64/56/39 71/63/46 70/62/45
f 64/56/39 65/57/40 72/64/47 71/63/46
f 65/57/40 66/58/41 73/65/48 72/64/47
f 66/58/41 67/59/42 74/66/49 73/65/48
f 68/61/44 69/60/43 76/67/50 75/68/51
f 69/60/43 70/62/45 77/69/52 76/67/50
f 70/62/45 71/63/46 78/70/53 77/69/52
f 71/63/46 72/64/47 79/71/54 78/70/53
f 72/64/47 73/65/48 80/72/55 79/71/54
f 73/65/48 74/66/49 81/73/56 80/72/55
f 1/74/57 12/75/58 33/25/8 11/76/59
f 12/75/58 13/77/60 34/26/9 33/25/8
f 13/77/60 14/78/61 35/29/12 34/26/9
f 14/78/61 15/79/62 36/31/14 35/29/12
f 15/79/62 16/80/63 37/33/16 36/31/14
f 16/80/63 17/81/64 38/35/18 37/33/16
f 17/81/64 18/82/65 39/37/20 38/35/18
f 18/82/65 2/83/66 19/84/67 39/37/20
f 39/37/20 19/84/67 20/85/68 46/38/21
f 46/38/21 20/85/68 21/86/69 53/45/28
f 53/45/28 21/86/69 22/87/70 60/52/35
f 60/52/35 22/87/70 23/88/71 67/59/42
f 67/59/42 23/88/71 24/89/72 74/66/49
f 74/66/49 24/89/72 25/90/73 81/73/56
f 81/73/56 25/90/73 4/91/74 26/92/75
f 80/72/55 81/73/56 26/92/75 27/93/76
f 79/71/54 80/72/55 27/93/76 28/94/77
f 78/70/53 79/71/54 28/94/77 29/95/78
f 77/69/52 78/70/53 29/95/78 30/96/79
f 76/67/50 77/69/52 30/96/79 31/97/80
f 75/68/51 76/67/50 31/97/80 32/98/81
f 5/99/82 75/68/51 32/98/81 3/100/83
f 6/101/84 68/61/44 75/68/51 5/99/82
f 7/102/85 61/54/37 68/61/44 6/101/84
f 8/103/86 54/47/30 61/54/37 7/102/85
f 9/104/87 47/40/23 54/47/30 8/103/86
f 10/105/88 40/28/11 47/40/23 9/104/87
f 11/76/59 33/25/8 40/28/11 10/105/88
f 1/74/57 11/76/59 92/106/89 82/107/90
f 24/89/72 23/88/71 104/108/91 105/109/92
f 12/75/58 1/74/57 82/107/90 93/110/93
f 25/90/73 24/89/72 105/109/92 106/111/94
f 13/77/60 12/75/58 93/110/93 94/112/95
f 4/91/74 25/90/73 106/111/94 85/113/96
f 14/78/61 13/77/60 94/112/95 95/114/97
f 26/92/75 4/91/74 85/113/96 107/115/98
f 15/79/62 14/78/61 95/114/97 96/116/99
f 27/93/76 26/92/75 107/115/98 108/117/100
f 16/80/63 15/79/62 96/116/99 97/118/101
f 28/94/77 27/93/76 108/117/100 109/119/102
f 17/81/64 16/80/63 97/118/101 98/120/103
f 5/99/82 3/100/83 84/121/104 86/122/105
f 29/95/78 28/94/77 109/119/102 110/123/106
f 18/82/65 17/81/64 98/120/103 99/124/107
f 6/101/84 5/99/82 86/122/105 87/125/108
f 30/96/79 29/95/78 110/123/106 111/126/109
f 2/83/66 18/82/65 99/124/107 83/127/110
f 7/102/85 6/101/84 87/125/108 88/128/111
f 31/97/80 30/96/79 111/126/109 112/129/112
f 19/84/67 2/83/66 83/127/110 100/130/113
f 8/103/86 7/102/85 88/128/111 89/131/114
f 32/98/81 31/97/80 112/129/112 113/132/115
f 20/85/68 19/84/67 100/130/113 101/133/116
f 9/104/87 8/103/86 89/131/114 90/134/117
f 3/100/83 32/98/81 113/132/115 84/121/104
f 21/86/69 20/85/68 101/133/116 102/135/118
f 10/105/88 9/104/87 90/134/117 91/136/119
f 22/87/70 21/86/69 102/135/118 103/137/120
f 11/76/59 10/105/88 91/136/119 92/106/89
f 23/88/71 22/87/70 103/137/120 104/108/91
f 107/115/98 85/113/96 117/138/121 139/139/122
f 96/116/99 95/114/97 127/140/123 128/141/124
f 108/117/100 107/115/98 139/139/122 140/142/125
f 97/118/101 96/116/99 128/141/124 129/143/126
f 109/119/102 108/117/100 140/142/125 141/144/127
f 98/120/103 97/118/101 129/143/126 130/145/128
f 86/122/105 84/121/104 116/146/129 118/147/130
f 110/123/106 109/119/102 141/144/127 142/148/131
f 99/124/107 98/120/103 130/145/128 131/149/132
f 87/125/108 86/122/105 118/147/130 119/150/133
f 111/126/109 110/123/106 142/148/131 143/151/134
f 83/127/110 99/124/107 131/149/132 115/152/135
f 88/128/111 87/125/108 119/150/133 120/153/136
f 112/129/112 111/126/109 143/151/134 144/154/137
f 100/130/113 83/127/110 115/152/135 132/155/138
f 89/131/114 88/128/111 120/153/136 121/156/139
f 113/132/115 112/129/112 144/154/137 145/157/140
f 101/133/116 100/130/113 132/155/138 133/158/141
f 90/134/117 89/131/114 121/156/139 122/159/142
f 84/121/104 113/132/115 145/157/140 116/146/129
f 102/135/118 101/133/116 133/158/141 134/160/143
f 91/136/119 90/134/117 122/159/142 123/161/144
f 103/137/120 102/135/118 134/160/143 135/162/145
f 92/106/89 91/136/119 123/161/144 124/163/146
f 104/108/91 103/137/120 135/162/145 136/164/147
f 82/107/90 92/106/89 124/163/146 114/165/148
f 105/109/92 104/108/91 136/164/147 137/166/149
f 93/110/93 82/107/90 114/165/148 125/167/150
f 106/111/94 105/109/92 137/166/149 138/168/151
f 94/112/95 93/110/93 125/167/150 126/169/152
f 85/113/96 106/111/94 138/168/151 117/138/121
f 95/114/97 94/112/95 126/169/152 127/140/123
f 127/140/123 150/170/153 128/141/124
f 121/156/139 120/153/136 150/6/153
f 135/162/145 134/160/143 148/5/154
f 146/4/155 143/151/134 142/148/131
f 145/157/140 144/154/137 146/4/155
f 144/154/137 143/151/134 146/4/155
f 142/148/131 141/144/127 147/171/156
f 141/144/127 140/142/125 147/171/156
f 142/148/131 147/171/156 146/4/155
f 116/146/129 145/157/140 146/4/155
f 140/142/125 139/139/122 147/171/156
f 139/139/122 117/138/121 147/171/156
f 118/147/130 116/146/129 151/3/157
f 116/146/129 146/4/155 151/3/157
f 151/3/157 150/6/153 120/153/136
f 118/147/130 151/3/157 119/150/133
f 150/6/153 114/165/148 124/163/146
f 123/161/144 122/159/142 150/6/153
f 122/159/142 121/156/139 150/6/153
f 150/6/153 124/163/146 123/161/144
f 119/150/133 151/3/157 120/153/136
f 148/5/154 115/152/135 131/149/132
f 130/145/128 129/143/126 148/5/154
f 129/143/126 128/141/124 148/5/154
f 148/5/154 131/149/132 130/145/128
f 114/165/148 150/170/153 125/167/150
f 150/170/153 148/5/154 128/141/124
f 125/167/150 150/170/153 126/169/152
f 127/140/123 126/169/152 150/170/153
f 133/158/141 132/155/138 148/5/154
f 132/155/138 115/152/135 148/5/154
f 148/5/154 149/15/158 136/164/147
f 133/158/141 148/5/154 134/160/143
f 149/15/158 147/1/156 117/138/121
f 117/138/121 138/168/151 149/15/158
f 138/168/151 137/166/149 149/15/158
f 137/166/149 136/164/147 149/15/158
f 136/164/147 135/162/145 148/5/154
o Cube_Cube.002
v -0.634576 -0.859643 1.591624
v -0.634576 -0.265907 1.591624
v -0.634576 -0.859643 -1.003234
v -0.634576 -0.265907 -1.003234
v 0.656009 -0.859643 1.591624
v 0.656009 -0.265907 1.591624
v 0.656009 -0.859643 -1.003234
v 0.656009 -0.265907 -1.003234
vt 0.375000 0.000000
vt 0.625000 0.000000
vt 0.625000 0.250000
vt 0.375000 0.250000
vt 0.625000 0.500000
vt 0.375000 0.500000
vt 0.625000 0.750000
vt 0.375000 0.750000
vt 0.625000 1.000000
vt 0.375000 1.000000
vn -1.0000 0.0000 0.0000
vn 0.0000 0.0000 -1.0000
vn 1.0000 0.0000 0.0000
vn 0.0000 0.0000 1.0000
usemtl None
s off
f 160/172/159 161/173/159 163/174/159 162/175/159
f 162/175/160 163/174/160 167/176/160 166/177/160
f 166/177/161 167/176/161 165/178/161 164/179/161
f 164/179/162 165/178/162 161/180/162 160/181/162
o Cube.001_Cube.003
v -0.831141 -1.861274 1.899280
v -0.831141 -0.859643 1.899280
v -0.831141 -1.861274 -1.277192
v -0.831141 -0.859643 -1.277192
v 1.648302 -1.861274 1.899280
v 1.648302 -0.859643 1.899280
v 1.648302 -1.861274 -1.277192
v 1.648302 -0.859643 -1.277192
v 1.822867 -1.532622 -1.277192
v 1.822867 -1.861274 -1.277192
v 1.822867 -1.861274 1.899280
v 1.822867 -1.532622 1.899280
v 3.228264 -1.532622 -1.277192
v 3.228264 -1.861274 -1.277192
v 3.228264 -1.861274 1.899280
v 3.228264 -1.532622 1.899280
vt 0.375000 0.000000
vt 0.625000 0.000000
vt 0.625000 0.250000
vt 0.375000 0.250000
vt 0.625000 0.500000
vt 0.375000 0.500000
vt 0.625000 0.500000
vt 0.375000 0.500000
vt 0.375000 0.750000
vt 0.625000 0.750000
vt 0.625000 1.000000
vt 0.375000 1.000000
vt 0.125000 0.500000
vt 0.125000 0.750000
vt 0.875000 0.500000
vt 0.875000 0.750000
vt 0.625000 0.750000
vt 0.375000 0.750000
vt 0.375000 0.750000
vt 0.625000 0.750000
vt 0.375000 0.500000
vt 0.625000 0.500000
vn -1.0000 0.0000 0.0000
vn 0.0000 0.0000 -1.0000
vn 0.0000 0.0000 1.0000
vn 0.0000 -1.0000 0.0000
vn 0.0000 1.0000 0.0000
vn 0.9680 0.2511 0.0000
vn 1.0000 0.0000 0.0000
usemtl None
s off
f 168/182/163 169/183/163 171/184/163 170/185/163
f 170/185/164 171/184/164 175/186/164 174/187/164
f 174/187/164 175/186/164 176/188/164 177/189/164
f 172/190/165 173/191/165 169/192/165 168/193/165
f 170/194/166 174/187/166 172/190/166 168/195/166
f 175/186/167 171/196/167 169/197/167 173/191/167
f 179/198/165 178/199/165 182/200/165 183/201/165
f 173/191/165 172/190/165 178/199/165 179/198/165
f 172/190/166 174/187/166 177/189/166 178/199/166
f 175/186/168 173/191/168 179/198/168 176/188/168
f 181/202/169 180/203/169 183/201/169 182/200/169
f 178/199/166 177/189/166 181/202/166 182/200/166
f 176/188/167 179/198/167 183/201/167 180/203/167
f 177/189/164 176/188/164 180/203/164 181/202/164
