# 3ds Max Wavefront OBJ Exporter v0.97b - (c)2007 guruware
# File Created: 09.05.2019 11:09:13

mtllib sawblade.mtl

#
# object Cylinder001
#

v  18.1650 0.9345 -0.9594
v  20.6972 0.9345 -5.8931
v  20.6972 1.1772 -5.8931
v  18.1650 1.1772 -0.9594
v  16.7414 0.9345 -7.1143
v  17.4335 0.9345 -12.6166
v  17.4335 1.1772 -12.6166
v  16.7414 1.1772 -7.1143
v  13.2986 0.9345 -12.4112
v  12.0670 0.9345 -17.8183
v  12.0670 1.1772 -17.8183
v  13.2986 1.1772 -12.4112
v  8.2517 0.9345 -16.2111
v  5.2450 0.9345 -20.8709
v  5.2450 1.1772 -20.8709
v  8.2517 1.1772 -16.2111
v  2.2095 0.9345 -18.0557
v  -2.2096 0.9345 -21.4061
v  -2.2096 1.1772 -21.4061
v  2.2095 1.1772 -18.0557
v  -4.0991 0.9345 -17.7225
v  -9.3976 0.9345 -19.3595
v  -9.3976 1.1772 -19.3595
v  -4.0991 1.1772 -17.7225
v  -9.9134 0.9345 -15.2517
v  -15.4522 0.9345 -14.9778
v  -15.4522 1.1772 -14.9778
v  -9.9134 1.1772 -15.2517
v  -14.5319 0.9345 -10.9414
v  -19.6430 0.9345 -8.7895
v  -19.6430 1.1772 -8.7895
v  -14.5319 1.1772 -10.9414
v  -17.3977 0.9345 -5.3113
v  -21.4646 0.9345 -1.5412
v  -21.4646 1.1772 -1.5412
v  -17.3977 1.1772 -5.3113
v  -18.1651 0.9345 0.9594
v  -20.6972 0.9345 5.8931
v  -20.6972 1.1772 5.8931
v  -18.1651 1.1772 0.9594
v  -16.7414 0.9345 7.1143
v  -17.4335 0.9345 12.6166
v  -17.4335 1.1772 12.6166
v  -16.7414 1.1772 7.1143
v  -13.2986 0.9345 12.4112
v  -12.0670 0.9345 17.8183
v  -12.0670 1.1772 17.8183
v  -13.2986 1.1772 12.4112
v  -8.2517 0.9345 16.2111
v  -5.2450 0.9345 20.8709
v  -5.2450 1.1772 20.8709
v  -8.2517 1.1772 16.2111
v  -2.2096 0.9345 18.0557
v  2.2095 0.9345 21.4061
v  2.2095 1.1772 21.4061
v  -2.2096 1.1772 18.0557
v  4.0991 0.9345 17.7225
v  9.3976 0.9345 19.3595
v  9.3976 1.1772 19.3595
v  4.0991 1.1772 17.7225
v  9.9133 0.9345 15.2517
v  15.4522 0.9345 14.9778
v  15.4522 1.1772 14.9778
v  9.9133 1.1772 15.2517
v  14.5319 0.9345 10.9414
v  19.6430 0.9345 8.7895
v  19.6430 1.1772 8.7895
v  14.5319 1.1772 10.9414
v  17.3977 0.9345 5.3113
v  21.4646 0.9345 1.5412
v  21.4646 1.1772 1.5412
v  17.3977 1.1772 5.3113
v  15.9680 0.5321 -0.0000
v  15.0050 0.5321 -5.4614
v  15.0050 1.5797 -5.4614
v  15.9680 1.5797 -0.0000
v  12.2322 0.5321 -10.2640
v  12.2322 1.5797 -10.2640
v  7.9840 0.5321 -13.8287
v  7.9840 1.5797 -13.8287
v  2.7728 0.5321 -15.7254
v  2.7728 1.5797 -15.7254
v  -2.7728 0.5321 -15.7254
v  -2.7728 1.5797 -15.7254
v  -7.9840 0.5321 -13.8287
v  -7.9840 1.5797 -13.8287
v  -12.2322 0.5321 -10.2640
v  -12.2322 1.5797 -10.2640
v  -15.0050 0.5321 -5.4614
v  -15.0050 1.5797 -5.4614
v  -15.9680 0.5321 -0.0000
v  -15.9680 1.5797 -0.0000
v  -15.0050 0.5321 5.4614
v  -15.0050 1.5797 5.4614
v  -12.2322 0.5321 10.2640
v  -12.2322 1.5797 10.2640
v  -7.9840 0.5321 13.8287
v  -7.9840 1.5797 13.8287
v  -2.7728 0.5321 15.7254
v  -2.7728 1.5797 15.7254
v  2.7728 0.5321 15.7254
v  2.7728 1.5797 15.7254
v  7.9840 0.5321 13.8287
v  7.9840 1.5797 13.8287
v  12.2322 0.5321 10.2640
v  12.2322 1.5797 10.2640
v  15.0050 0.5321 5.4614
v  15.0050 1.5797 5.4614
v  1.6769 0.5321 -0.0000
v  1.5758 0.5321 -0.5735
v  1.5758 0.5321 0.5735
v  1.2846 0.5321 1.0779
v  0.8385 0.5321 1.4523
v  0.2912 0.5321 1.6514
v  -0.2912 0.5321 1.6514
v  -0.8385 0.5321 1.4522
v  -1.2846 0.5321 1.0779
v  -1.5758 0.5321 0.5735
v  -1.6769 0.5321 -0.0000
v  -1.5758 0.5321 -0.5735
v  -1.2846 0.5321 -1.0779
v  -0.8385 0.5321 -1.4522
v  -0.2912 0.5321 -1.6514
v  0.2912 0.5321 -1.6514
v  0.8385 0.5321 -1.4522
v  1.2846 0.5321 -1.0779
v  1.5758 1.5797 -0.5735
v  1.6769 1.5797 -0.0000
v  1.2846 1.5797 -1.0779
v  0.8385 1.5797 -1.4522
v  0.2912 1.5797 -1.6514
v  -0.2912 1.5797 -1.6514
v  -0.8385 1.5797 -1.4522
v  -1.2846 1.5797 -1.0779
v  -1.5758 1.5797 -0.5735
v  -1.6769 1.5797 -0.0000
v  -1.5758 1.5797 0.5735
v  -1.2846 1.5797 1.0779
v  -0.8385 1.5797 1.4522
v  -0.2912 1.5797 1.6514
v  0.2912 1.5797 1.6514
v  0.8385 1.5797 1.4523
v  1.2846 1.5797 1.0779
v  1.5758 1.5797 0.5735
# 144 vertices

vn 0.8897 0.0000 0.4566
vn 0.9922 0.0000 0.1248
vn 0.9750 0.0000 -0.2221
vn 0.8403 0.0000 -0.5422
vn 0.6042 0.0000 -0.7969
vn 0.2952 0.0000 -0.9554
vn -0.0494 0.0000 -0.9988
vn -0.3880 0.0000 -0.9216
vn -0.6798 0.0000 -0.7334
vn -0.8897 0.0000 -0.4566
vn -0.9922 0.0000 -0.1248
vn -0.9750 0.0000 0.2221
vn -0.8403 0.0000 0.5422
vn -0.6042 0.0000 0.7969
vn -0.2952 0.0000 0.9554
vn 0.0494 0.0000 0.9988
vn 0.3880 0.0000 0.9217
vn 0.6798 0.0000 0.7334
vn 0.0976 -0.9950 0.0233
vn 0.0997 -0.9950 -0.0115
vn 0.1022 -0.9947 0.0141
vn 0.2282 -0.9665 0.1171
vn -0.0756 0.0000 -0.9971
vn 0.1237 0.9918 -0.0314
vn 0.1270 0.9918 0.0128
vn 0.1260 0.9920 0.0003
vn 0.0733 0.9966 0.0376
vn 0.4002 0.0000 0.9164
vn 0.0897 -0.9950 -0.0449
vn 0.1009 -0.9947 -0.0217
vn 0.2545 -0.9665 0.0320
vn -0.4121 0.0000 -0.9111
vn 0.1055 0.9918 -0.0718
vn 0.1185 0.9920 -0.0428
vn 0.0818 0.9966 0.0103
vn 0.6895 0.0000 0.7243
vn 0.0690 -0.9950 -0.0729
vn 0.0874 -0.9947 -0.0549
vn 0.2501 -0.9665 -0.0570
vn -0.6989 0.0000 -0.7152
vn 0.0746 0.9918 -0.1036
vn 0.0967 0.9920 -0.0807
vn 0.0804 0.9966 -0.0183
vn 0.8956 0.0000 0.4448
vn 0.0399 -0.9950 -0.0921
vn 0.0633 -0.9947 -0.0815
vn 0.2155 -0.9665 -0.1391
vn -0.9014 0.0000 -0.4331
vn 0.0347 0.9918 -0.1228
vn 0.0632 0.9920 -0.1089
vn 0.0693 0.9966 -0.0447
vn 0.9937 0.0000 0.1117
vn 0.0060 -0.9950 -0.1002
vn 0.0317 -0.9947 -0.0982
vn 0.1550 -0.9665 -0.2044
vn -0.9951 0.0000 -0.0987
vn -0.0094 0.9918 -0.1273
vn 0.0221 0.9920 -0.1240
vn 0.0498 0.9966 -0.0657
vn 0.9720 0.0000 -0.2349
vn -0.0287 -0.9950 -0.0962
vn -0.0039 -0.9947 -0.1031
vn 0.0757 -0.9665 -0.2451
vn -0.9689 0.0000 0.2476
vn -0.0524 0.9918 -0.1164
vn -0.0216 0.9920 -0.1241
vn 0.0243 0.9966 -0.0787
vn 0.8330 0.0000 -0.5532
vn -0.0598 -0.9950 -0.0806
vn -0.0389 -0.9947 -0.0956
vn -0.0127 -0.9665 -0.2562
vn -0.8257 0.0000 0.5641
vn -0.0890 0.9918 -0.0914
vn -0.0627 0.9920 -0.1092
vn -0.0041 0.9966 -0.0823
vn 0.5936 0.0000 -0.8048
vn -0.0838 -0.9950 -0.0552
vn -0.0692 -0.9947 -0.0765
vn -0.0995 -0.9665 -0.2364
vn -0.5830 0.0000 0.8125
vn -0.1149 0.9918 -0.0555
vn -0.0963 0.9920 -0.0812
vn -0.0320 0.9966 -0.0760
vn 0.2825 0.0000 -0.9593
vn -0.0976 -0.9950 -0.0233
vn -0.0912 -0.9947 -0.0482
vn -0.1744 -0.9665 -0.1881
vn -0.2700 0.0000 0.9629
vn -0.1270 0.9918 -0.0128
vn -0.1183 0.9920 -0.0433
vn -0.0560 0.9966 -0.0604
vn -0.0626 0.0000 -0.9980
vn -0.0997 -0.9950 0.0115
vn -0.1022 -0.9947 -0.0141
vn -0.2282 -0.9665 -0.1171
vn 0.0756 0.0000 0.9971
vn -0.1237 0.9918 0.0314
vn -0.1260 0.9920 -0.0003
vn -0.0733 0.9966 -0.0376
vn -0.4002 0.0000 -0.9164
vn -0.0897 -0.9950 0.0449
vn -0.1009 -0.9947 0.0217
vn -0.2545 -0.9665 -0.0320
vn 0.4121 0.0000 0.9111
vn -0.1055 0.9918 0.0718
vn -0.1185 0.9920 0.0428
vn -0.0818 0.9966 -0.0103
vn -0.6895 0.0000 -0.7243
vn -0.0690 -0.9950 0.0729
vn -0.0874 -0.9947 0.0549
vn -0.2501 -0.9665 0.0570
vn 0.6989 0.0000 0.7152
vn -0.0746 0.9918 0.1036
vn -0.0967 0.9920 0.0807
vn -0.0804 0.9966 0.0183
vn -0.8956 0.0000 -0.4448
vn -0.0399 -0.9950 0.0921
vn -0.0633 -0.9947 0.0815
vn -0.2155 -0.9665 0.1391
vn 0.9014 0.0000 0.4331
vn -0.0347 0.9918 0.1228
vn -0.0632 0.9920 0.1089
vn -0.0693 0.9966 0.0447
vn -0.9937 0.0000 -0.1117
vn -0.0060 -0.9950 0.1002
vn -0.0317 -0.9947 0.0982
vn -0.1550 -0.9665 0.2044
vn 0.9951 0.0000 0.0987
vn 0.0094 0.9918 0.1273
vn -0.0221 0.9920 0.1240
vn -0.0498 0.9966 0.0657
vn -0.9720 0.0000 0.2349
vn 0.0287 -0.9950 0.0962
vn 0.0039 -0.9947 0.1031
vn -0.0757 -0.9665 0.2451
vn 0.9689 0.0000 -0.2476
vn 0.0524 0.9918 0.1164
vn 0.0216 0.9920 0.1241
vn -0.0243 0.9966 0.0787
vn -0.8330 0.0000 0.5532
vn 0.0598 -0.9950 0.0806
vn 0.0389 -0.9947 0.0956
vn 0.0127 -0.9665 0.2562
vn 0.8257 0.0000 -0.5641
vn 0.0890 0.9918 0.0914
vn 0.0627 0.9920 0.1092
vn 0.0041 0.9966 0.0823
vn -0.5936 0.0000 0.8048
vn 0.0838 -0.9950 0.0552
vn 0.0692 -0.9947 0.0765
vn 0.0995 -0.9665 0.2364
vn 0.5830 0.0000 -0.8125
vn 0.1149 0.9918 0.0555
vn 0.0963 0.9920 0.0812
vn 0.0320 0.9966 0.0760
vn -0.2825 0.0000 0.9593
vn 0.0912 -0.9947 0.0482
vn 0.1744 -0.9665 0.1881
vn 0.2700 0.0000 -0.9629
vn 0.1183 0.9920 0.0433
vn 0.0560 0.9966 0.0604
vn 0.0626 0.0000 0.9980
vn 0.0000 -1.0000 -0.0000
vn 0.0000 1.0000 -0.0000
vn -1.0000 -0.0000 0.0000
vn -0.9397 -0.0000 0.3420
vn -0.9397 -0.0000 -0.3420
vn -0.7660 -0.0000 -0.6428
vn -0.5000 -0.0000 -0.8660
vn -0.5000 0.0000 -0.8660
vn -0.1736 0.0000 -0.9848
vn -0.1736 -0.0000 -0.9848
vn 0.1736 -0.0000 -0.9848
vn 0.5000 -0.0000 -0.8660
vn 0.5000 0.0000 -0.8660
vn 0.7660 0.0000 -0.6428
vn 0.9397 0.0000 -0.3420
vn 1.0000 0.0000 -0.0000
vn 1.0000 0.0000 0.0000
vn 0.9397 -0.0000 0.3420
vn 0.9397 0.0000 0.3420
vn 0.7660 0.0000 0.6428
vn 0.5000 -0.0000 0.8660
vn 0.1736 0.0000 0.9848
vn -0.1736 0.0000 0.9848
vn -0.5000 0.0000 0.8660
vn -0.7660 0.0000 0.6428
vn -0.7660 -0.0000 0.6428
# 188 vertex normals

vt 0.7500 0.0000 1.0000
vt 0.8056 0.0000 1.0000
vt 0.8056 1.0000 1.0000
vt 0.7500 1.0000 1.0000
vt 0.8611 0.0000 1.0000
vt 0.8611 1.0000 1.0000
vt 0.9167 0.0000 1.0000
vt 0.9167 1.0000 1.0000
vt 0.9722 0.0000 1.0000
vt 0.9722 1.0000 1.0000
vt 1.0278 0.0000 1.0000
vt 1.0278 1.0000 1.0000
vt 0.0278 0.0000 1.0000
vt 0.0833 0.0000 1.0000
vt 0.0833 1.0000 1.0000
vt 0.0278 1.0000 1.0000
vt 0.1389 0.0000 1.0000
vt 0.1389 1.0000 1.0000
vt 0.1944 0.0000 1.0000
vt 0.1944 1.0000 1.0000
vt 0.2500 0.0000 1.0000
vt 0.2500 1.0000 1.0000
vt 0.3056 0.0000 1.0000
vt 0.3056 1.0000 1.0000
vt 0.3611 0.0000 1.0000
vt 0.3611 1.0000 1.0000
vt 0.4167 0.0000 1.0000
vt 0.4167 1.0000 1.0000
vt 0.4722 0.0000 1.0000
vt 0.4722 1.0000 1.0000
vt 0.5278 0.0000 1.0000
vt 0.5278 1.0000 1.0000
vt 0.5833 0.0000 1.0000
vt 0.5833 1.0000 1.0000
vt 0.6389 0.0000 1.0000
vt 0.6389 1.0000 1.0000
vt 0.6944 0.0000 1.0000
vt 0.6944 1.0000 1.0000
vt 0.3290 0.9698 -0.2500
vt 0.5000 1.0000 -0.2500
vt 0.6710 0.9698 -0.2500
vt 0.8214 0.8830 -0.2500
vt 0.9330 0.7500 -0.2500
vt 0.9924 0.5868 -0.2500
vt 0.9924 0.4132 -0.2500
vt 0.9330 0.2500 -0.2500
vt 0.8214 0.1170 -0.2500
vt 0.6710 0.0302 -0.2500
vt 0.5000 0.0000 -0.2500
vt 0.3290 0.0302 -0.2500
vt 0.1786 0.1170 -0.2500
vt 0.0670 0.2500 -0.2500
vt 0.0076 0.4132 -0.2500
vt 0.0076 0.5868 -0.2500
vt 0.0670 0.7500 -0.2500
vt 0.1786 0.8830 -0.2500
vt 0.5000 1.0000 0.2500
vt 0.3290 0.9698 0.2500
vt 0.1786 0.8830 0.2500
vt 0.0670 0.7500 0.2500
vt 0.0076 0.5868 0.2500
vt 0.0076 0.4132 0.2500
vt 0.0670 0.2500 0.2500
vt 0.1786 0.1170 0.2500
vt 0.3290 0.0302 0.2500
vt 0.5000 0.0000 0.2500
vt 0.6710 0.0302 0.2500
vt 0.8214 0.1170 0.2500
vt 0.9330 0.2500 0.2500
vt 0.9924 0.4132 0.2500
vt 0.9924 0.5868 0.2500
vt 0.9330 0.7500 0.2500
vt 0.8214 0.8830 0.2500
vt 0.6710 0.9698 0.2500
# 74 texture coords

g Cylinder001
usemtl wire_177088027
s 1
f 1/1/1 2/2/1 3/3/1 
f 3/3/1 4/4/1 1/1/1 
f 5/2/2 6/5/2 7/6/2 
f 7/6/2 8/3/2 5/2/2 
f 9/5/3 10/7/3 11/8/3 
f 11/8/3 12/6/3 9/5/3 
f 13/7/4 14/9/4 15/10/4 
f 15/10/4 16/8/4 13/7/4 
f 17/9/5 18/11/5 19/12/5 
f 19/12/5 20/10/5 17/9/5 
f 21/13/6 22/14/6 23/15/6 
f 23/15/6 24/16/6 21/13/6 
f 25/14/7 26/17/7 27/18/7 
f 27/18/7 28/15/7 25/14/7 
f 29/17/8 30/19/8 31/20/8 
f 31/20/8 32/18/8 29/17/8 
f 33/19/9 34/21/9 35/22/9 
f 35/22/9 36/20/9 33/19/9 
f 37/21/10 38/23/10 39/24/10 
f 39/24/10 40/22/10 37/21/10 
f 41/23/11 42/25/11 43/26/11 
f 43/26/11 44/24/11 41/23/11 
f 45/25/12 46/27/12 47/28/12 
f 47/28/12 48/26/12 45/25/12 
f 49/27/13 50/29/13 51/30/13 
f 51/30/13 52/28/13 49/27/13 
f 53/29/14 54/31/14 55/32/14 
f 55/32/14 56/30/14 53/29/14 
f 57/31/15 58/33/15 59/34/15 
f 59/34/15 60/32/15 57/31/15 
f 61/33/16 62/35/16 63/36/16 
f 63/36/16 64/34/16 61/33/16 
f 65/35/17 66/37/17 67/38/17 
f 67/38/17 68/36/17 65/35/17 
f 69/37/18 70/1/18 71/4/18 
f 71/4/18 72/38/18 69/37/18 
s 2
f 73/1/19 74/2/20 2/2/21 
f 2/2/21 1/1/22 73/1/19 
s 4
f 74/2/23 75/3/23 3/3/23 
f 3/3/23 2/2/23 74/2/23 
s 2
f 75/3/24 76/4/25 4/4/26 
f 4/4/26 3/3/27 75/3/24 
s 4
f 76/4/28 73/1/28 1/1/28 
f 1/1/28 4/4/28 76/4/28 
s 2
f 74/2/20 77/5/29 6/5/30 
f 6/5/30 5/2/31 74/2/20 
s 4
f 77/5/32 78/6/32 7/6/32 
f 7/6/32 6/5/32 77/5/32 
s 2
f 78/6/33 75/3/24 8/3/34 
f 8/3/34 7/6/35 78/6/33 
s 8
f 75/3/36 74/2/36 5/2/36 
f 5/2/36 8/3/36 75/3/36 
s 2
f 77/5/29 79/7/37 10/7/38 
f 10/7/38 9/5/39 77/5/29 
s 4
f 79/7/40 80/8/40 11/8/40 
f 11/8/40 10/7/40 79/7/40 
s 2
f 80/8/41 78/6/33 12/6/42 
f 12/6/42 11/8/43 80/8/41 
s 8
f 78/6/44 77/5/44 9/5/44 
f 9/5/44 12/6/44 78/6/44 
s 2
f 79/7/37 81/9/45 14/9/46 
f 14/9/46 13/7/47 79/7/37 
s 4
f 81/9/48 82/10/48 15/10/48 
f 15/10/48 14/9/48 81/9/48 
s 2
f 82/10/49 80/8/41 16/8/50 
f 16/8/50 15/10/51 82/10/49 
s 8
f 80/8/52 79/7/52 13/7/52 
f 13/7/52 16/8/52 80/8/52 
s 2
f 81/9/45 83/11/53 18/11/54 
f 18/11/54 17/9/55 81/9/45 
s 4
f 83/11/56 84/12/56 19/12/56 
f 19/12/56 18/11/56 83/11/56 
s 2
f 84/12/57 82/10/49 20/10/58 
f 20/10/58 19/12/59 84/12/57 
s 8
f 82/10/60 81/9/60 17/9/60 
f 17/9/60 20/10/60 82/10/60 
s 2
f 83/13/53 85/14/61 22/14/62 
f 22/14/62 21/13/63 83/13/53 
s 4
f 85/14/64 86/15/64 23/15/64 
f 23/15/64 22/14/64 85/14/64 
s 2
f 86/15/65 84/16/57 24/16/66 
f 24/16/66 23/15/67 86/15/65 
s 8
f 84/16/68 83/13/68 21/13/68 
f 21/13/68 24/16/68 84/16/68 
s 2
f 85/14/61 87/17/69 26/17/70 
f 26/17/70 25/14/71 85/14/61 
s 4
f 87/17/72 88/18/72 27/18/72 
f 27/18/72 26/17/72 87/17/72 
s 2
f 88/18/73 86/15/65 28/15/74 
f 28/15/74 27/18/75 88/18/73 
s 8
f 86/15/76 85/14/76 25/14/76 
f 25/14/76 28/15/76 86/15/76 
s 2
f 87/17/69 89/19/77 30/19/78 
f 30/19/78 29/17/79 87/17/69 
s 4
f 89/19/80 90/20/80 31/20/80 
f 31/20/80 30/19/80 89/19/80 
s 2
f 90/20/81 88/18/73 32/18/82 
f 32/18/82 31/20/83 90/20/81 
s 8
f 88/18/84 87/17/84 29/17/84 
f 29/17/84 32/18/84 88/18/84 
s 2
f 89/19/77 91/21/85 34/21/86 
f 34/21/86 33/19/87 89/19/77 
s 4
f 91/21/88 92/22/88 35/22/88 
f 35/22/88 34/21/88 91/21/88 
s 2
f 92/22/89 90/20/81 36/20/90 
f 36/20/90 35/22/91 92/22/89 
s 8
f 90/20/92 89/19/92 33/19/92 
f 33/19/92 36/20/92 90/20/92 
s 2
f 91/21/85 93/23/93 38/23/94 
f 38/23/94 37/21/95 91/21/85 
s 4
f 93/23/96 94/24/96 39/24/96 
f 39/24/96 38/23/96 93/23/96 
s 2
f 94/24/97 92/22/89 40/22/98 
f 40/22/98 39/24/99 94/24/97 
s 8
f 92/22/100 91/21/100 37/21/100 
f 37/21/100 40/22/100 92/22/100 
s 2
f 93/23/93 95/25/101 42/25/102 
f 42/25/102 41/23/103 93/23/93 
s 4
f 95/25/104 96/26/104 43/26/104 
f 43/26/104 42/25/104 95/25/104 
s 2
f 96/26/105 94/24/97 44/24/106 
f 44/24/106 43/26/107 96/26/105 
s 8
f 94/24/108 93/23/108 41/23/108 
f 41/23/108 44/24/108 94/24/108 
s 2
f 95/25/101 97/27/109 46/27/110 
f 46/27/110 45/25/111 95/25/101 
s 4
f 97/27/112 98/28/112 47/28/112 
f 47/28/112 46/27/112 97/27/112 
s 2
f 98/28/113 96/26/105 48/26/114 
f 48/26/114 47/28/115 98/28/113 
s 8
f 96/26/116 95/25/116 45/25/116 
f 45/25/116 48/26/116 96/26/116 
s 2
f 97/27/109 99/29/117 50/29/118 
f 50/29/118 49/27/119 97/27/109 
s 4
f 99/29/120 100/30/120 51/30/120 
f 51/30/120 50/29/120 99/29/120 
s 2
f 100/30/121 98/28/113 52/28/122 
f 52/28/122 51/30/123 100/30/121 
s 8
f 98/28/124 97/27/124 49/27/124 
f 49/27/124 52/28/124 98/28/124 
s 2
f 99/29/117 101/31/125 54/31/126 
f 54/31/126 53/29/127 99/29/117 
s 4
f 101/31/128 102/32/128 55/32/128 
f 55/32/128 54/31/128 101/31/128 
s 2
f 102/32/129 100/30/121 56/30/130 
f 56/30/130 55/32/131 102/32/129 
s 8
f 100/30/132 99/29/132 53/29/132 
f 53/29/132 56/30/132 100/30/132 
s 2
f 101/31/125 103/33/133 58/33/134 
f 58/33/134 57/31/135 101/31/125 
s 4
f 103/33/136 104/34/136 59/34/136 
f 59/34/136 58/33/136 103/33/136 
s 2
f 104/34/137 102/32/129 60/32/138 
f 60/32/138 59/34/139 104/34/137 
s 8
f 102/32/140 101/31/140 57/31/140 
f 57/31/140 60/32/140 102/32/140 
s 2
f 103/33/133 105/35/141 62/35/142 
f 62/35/142 61/33/143 103/33/133 
s 4
f 105/35/144 106/36/144 63/36/144 
f 63/36/144 62/35/144 105/35/144 
s 2
f 106/36/145 104/34/137 64/34/146 
f 64/34/146 63/36/147 106/36/145 
s 8
f 104/34/148 103/33/148 61/33/148 
f 61/33/148 64/34/148 104/34/148 
s 2
f 105/35/141 107/37/149 66/37/150 
f 66/37/150 65/35/151 105/35/141 
s 4
f 107/37/152 108/38/152 67/38/152 
f 67/38/152 66/37/152 107/37/152 
s 2
f 108/38/153 106/36/145 68/36/154 
f 68/36/154 67/38/155 108/38/153 
s 8
f 106/36/156 105/35/156 65/35/156 
f 65/35/156 68/36/156 106/36/156 
s 2
f 107/37/149 73/1/19 70/1/157 
f 70/1/157 69/37/158 107/37/149 
s 8
f 73/1/159 76/4/159 71/4/159 
f 71/4/159 70/1/159 73/1/159 
s 2
f 76/4/25 108/38/153 72/38/160 
f 72/38/160 71/4/161 76/4/25 
s 8
f 108/38/162 107/37/162 69/37/162 
f 69/37/162 72/38/162 108/38/162 
s off
f 74/39/163 73/40/163 109/40/163 
f 109/40/163 110/39/163 74/39/163 
f 73/40/163 107/41/163 111/41/163 
f 111/41/163 109/40/163 73/40/163 
f 107/41/163 105/42/163 112/42/163 
f 112/42/163 111/41/163 107/41/163 
f 105/42/163 103/43/163 113/43/163 
f 113/43/163 112/42/163 105/42/163 
f 103/43/163 101/44/163 114/44/163 
f 114/44/163 113/43/163 103/43/163 
f 101/44/163 99/45/163 115/45/163 
f 115/45/163 114/44/163 101/44/163 
f 99/45/163 97/46/163 116/46/163 
f 116/46/163 115/45/163 99/45/163 
f 97/46/163 95/47/163 117/47/163 
f 117/47/163 116/46/163 97/46/163 
f 95/47/163 93/48/163 118/48/163 
f 118/48/163 117/47/163 95/47/163 
f 93/48/163 91/49/163 119/49/163 
f 119/49/163 118/48/163 93/48/163 
f 91/49/163 89/50/163 120/50/163 
f 120/50/163 119/49/163 91/49/163 
f 89/50/163 87/51/163 121/51/163 
f 121/51/163 120/50/163 89/50/163 
f 87/51/163 85/52/163 122/52/163 
f 122/52/163 121/51/163 87/51/163 
f 85/52/163 83/53/163 123/53/163 
f 123/53/163 122/52/163 85/52/163 
f 83/53/163 81/54/163 124/54/163 
f 124/54/163 123/53/163 83/53/163 
f 81/54/163 79/55/163 125/55/163 
f 125/55/163 124/54/163 81/54/163 
f 79/55/163 77/56/163 126/56/163 
f 126/56/163 125/55/163 79/55/163 
f 77/56/163 74/39/163 110/39/163 
f 110/39/163 126/56/163 77/56/163 
f 76/57/164 75/58/164 127/58/164 
f 127/58/164 128/57/164 76/57/164 
f 75/58/164 78/59/164 129/59/164 
f 129/59/164 127/58/164 75/58/164 
f 78/59/164 80/60/164 130/60/164 
f 130/60/164 129/59/164 78/59/164 
f 80/60/164 82/61/164 131/61/164 
f 131/61/164 130/60/164 80/60/164 
f 82/61/164 84/62/164 132/62/164 
f 132/62/164 131/61/164 82/61/164 
f 84/62/164 86/63/164 133/63/164 
f 133/63/164 132/62/164 84/62/164 
f 86/63/164 88/64/164 134/64/164 
f 134/64/164 133/63/164 86/63/164 
f 88/64/164 90/65/164 135/65/164 
f 135/65/164 134/64/164 88/64/164 
f 90/65/164 92/66/164 136/66/164 
f 136/66/164 135/65/164 90/65/164 
f 92/66/164 94/67/164 137/67/164 
f 137/67/164 136/66/164 92/66/164 
f 94/67/164 96/68/164 138/68/164 
f 138/68/164 137/67/164 94/67/164 
f 96/68/164 98/69/164 139/69/164 
f 139/69/164 138/68/164 96/68/164 
f 98/69/164 100/70/164 140/70/164 
f 140/70/164 139/69/164 98/69/164 
f 100/70/164 102/71/164 141/71/164 
f 141/71/164 140/70/164 100/70/164 
f 102/71/164 104/72/164 142/72/164 
f 142/72/164 141/71/164 102/71/164 
f 104/72/164 106/73/164 143/73/164 
f 143/73/164 142/72/164 104/72/164 
f 106/73/164 108/74/164 144/74/164 
f 144/74/164 143/73/164 106/73/164 
f 108/74/164 76/57/164 128/57/164 
f 128/57/164 144/74/164 108/74/164 
s 1
f 128/29/165 127/31/166 109/20/165 
f 109/20/165 111/21/167 128/29/165 
f 144/1/167 128/29/165 111/21/167 
f 111/21/167 112/23/168 144/1/167 
f 143/37/168 144/1/167 112/23/168 
f 112/23/168 113/24/169 143/37/168 
f 142/36/170 143/37/168 113/24/169 
f 113/24/169 114/22/171 142/36/170 
f 141/38/172 142/36/170 114/22/171 
f 114/22/171 115/23/173 141/38/172 
f 140/37/173 141/38/172 115/23/173 
f 115/23/173 116/25/174 140/37/173 
f 139/35/175 140/37/173 116/25/174 
f 116/25/174 117/26/176 139/35/175 
f 138/34/176 139/35/175 117/26/176 
f 117/26/176 118/24/177 138/34/176 
f 137/36/177 138/34/176 118/24/177 
f 118/24/177 119/25/178 137/36/177 
f 136/35/179 137/36/177 119/25/178 
f 119/25/178 120/27/180 136/35/179 
f 135/33/181 136/35/179 120/27/180 
f 120/27/180 121/28/182 135/33/181 
f 134/32/182 135/33/181 121/28/182 
f 121/28/182 122/26/183 134/32/182 
f 133/34/183 134/32/182 122/26/183 
f 122/26/183 123/27/184 133/34/183 
f 132/33/184 133/34/183 123/27/184 
f 123/27/184 124/29/185 132/33/184 
f 131/31/185 132/33/184 124/29/185 
f 124/29/185 125/30/186 131/31/185 
f 130/30/186 131/31/185 125/30/186 
f 125/30/186 126/28/187 130/30/186 
f 129/32/188 130/30/186 126/28/187 
f 126/28/187 110/22/166 129/32/188 
f 127/31/166 129/32/188 110/22/166 
f 110/22/166 109/20/165 127/31/166 
# 288 faces

