# 3ds Max Wavefront OBJ Exporter v0.97b - (c)2007 guruware
# File Created: 09.12.2018 17:33:24

#
# object Cylinder001
#

v  0.0000 0.0000 -0.0000
v  -0.0000 0.0000 -1.0214
v  0.7222 0.0000 -0.7222
v  1.0214 0.0000 -0.0000
v  -1.0214 0.0000 0.0000
v  -0.7222 0.0000 -0.7222
v  0.0000 0.0000 1.0214
v  -0.7222 0.0000 0.7222
v  0.7222 0.0000 0.7222
v  0.7222 174.0541 -0.7222
v  1.0214 174.0541 -0.0000
v  -0.0000 174.0541 -1.0214
v  -0.7222 174.0541 -0.7222
v  -1.0214 174.0541 0.0000
v  -0.7222 174.0541 0.7222
v  0.0000 174.0541 1.0214
v  0.7222 174.0541 0.7222
v  0.0000 174.0541 -0.0000
# 18 vertices

vn 0.0000 -1.0000 -0.0000
vn 1.0000 0.0000 -0.0000
vn 0.7071 0.0000 -0.7071
vn -0.0000 0.0000 -1.0000
vn -0.7071 0.0000 -0.7071
vn -1.0000 0.0000 0.0000
vn -0.7071 0.0000 0.7071
vn 0.0000 0.0000 1.0000
vn 0.7071 0.0000 0.7071
vn 0.0000 1.0000 -0.0000
# 10 vertex normals

vt 0.5000 0.0000 0.0000
vt 0.0000 0.0000 1.0000
vt -0.1250 0.0000 1.0000
vt 0.1161 0.0000 0.4142
vt 0.2500 0.0000 1.0000
vt 0.1250 0.0000 1.0000
vt 0.5000 0.0000 1.0000
vt 0.3750 0.0000 1.0000
vt 0.7500 0.0000 1.0000
vt 0.6250 0.0000 1.0000
vt 0.8750 0.0000 1.0000
vt 0.8750 1.0000 1.0000
vt 0.7500 1.0000 1.0000
vt 0.0000 1.0000 1.0000
vt -0.1250 1.0000 1.0000
vt 0.1250 1.0000 1.0000
vt 0.2500 1.0000 1.0000
vt 0.3750 1.0000 1.0000
vt 0.5000 1.0000 1.0000
vt 0.6250 1.0000 1.0000
vt 0.5000 1.0000 0.0000
# 21 texture coords

g Cylinder001
s 1
f 1/1/1 2/2/1 3/3/1 4/4/1 
f 1/1/1 5/5/1 6/6/1 2/2/1 
f 1/1/1 7/7/1 8/8/1 5/5/1 
f 1/1/1 4/9/1 9/10/1 7/7/1 
s 8
f 4/9/2 3/11/3 10/12/3 11/13/2 
f 3/3/3 2/2/4 12/14/4 10/15/3 
f 2/2/4 6/6/5 13/16/5 12/14/4 
f 6/6/5 5/5/6 14/17/6 13/16/5 
f 5/5/6 8/8/7 15/18/7 14/17/6 
f 8/8/7 7/7/8 16/19/8 15/18/7 
f 7/7/8 9/10/9 17/20/9 16/19/8 
f 9/10/9 4/9/2 11/13/2 17/20/9 
s 1
f 18/21/10 17/20/10 11/13/10 10/12/10 
f 18/21/10 10/15/10 12/14/10 13/16/10 
f 18/21/10 13/16/10 14/17/10 15/18/10 
f 18/21/10 15/18/10 16/19/10 17/20/10 
# 16 polygons

#
# object Cylinder002
#

v  -15.4990 171.0734 0.0000
v  -15.4990 171.0734 -1.0214
v  -15.4990 170.3512 -0.7222
v  -15.4990 170.0520 0.0000
v  -15.4990 172.0948 0.0000
v  -15.4990 171.7956 -0.7222
v  -15.4990 171.0734 1.0214
v  -15.4990 171.7956 0.7223
v  -15.4990 170.3512 0.7223
v  36.0427 170.3512 -0.7222
v  36.0427 170.0520 0.0000
v  36.0427 171.0734 -1.0214
v  36.0427 171.7956 -0.7222
v  36.0427 172.0948 0.0000
v  36.0427 171.7956 0.7223
v  36.0427 171.0734 1.0214
v  36.0427 170.3512 0.7223
v  36.0427 171.0734 0.0000
# 18 vertices

vn -1.0000 0.0000 -0.0000
vn -0.0000 -1.0000 -0.0000
vn -0.0000 -0.7071 -0.7071
vn 0.0000 0.0000 -1.0000
vn 0.0000 0.7071 -0.7071
vn 0.0000 1.0000 0.0000
vn 0.0000 0.7071 0.7071
vn -0.0000 -0.0000 1.0000
vn 0.0000 0.0000 1.0000
vn -0.0000 -0.7071 0.7071
vn 1.0000 -0.0000 -0.0000
# 11 vertex normals

vt 0.5000 0.0000 0.0000
vt 0.0000 0.0000 1.0000
vt -0.1250 0.0000 1.0000
vt 0.1161 0.0000 0.4142
vt 0.2500 0.0000 1.0000
vt 0.1250 0.0000 1.0000
vt 0.5000 0.0000 1.0000
vt 0.3750 0.0000 1.0000
vt 0.7500 0.0000 1.0000
vt 0.6250 0.0000 1.0000
vt 0.8750 0.0000 1.0000
vt 0.8750 1.0000 1.0000
vt 0.7500 1.0000 1.0000
vt 0.0000 1.0000 1.0000
vt -0.1250 1.0000 1.0000
vt 0.1250 1.0000 1.0000
vt 0.2500 1.0000 1.0000
vt 0.3750 1.0000 1.0000
vt 0.5000 1.0000 1.0000
vt 0.6250 1.0000 1.0000
vt 0.5000 1.0000 0.0000
# 21 texture coords

g Cylinder002
s 1
f 19/22/11 20/23/11 21/24/11 22/25/11 
f 19/22/11 23/26/11 24/27/11 20/23/11 
f 19/22/11 25/28/11 26/29/11 23/26/11 
f 19/22/11 22/30/11 27/31/11 25/28/11 
s 8
f 22/30/12 21/32/13 28/33/13 29/34/12 
f 21/24/13 20/23/14 30/35/14 28/36/13 
f 20/23/14 24/27/15 31/37/15 30/35/14 
f 24/27/15 23/26/16 32/38/16 31/37/15 
f 23/26/16 26/29/17 33/39/17 32/38/16 
f 26/29/17 25/28/18 34/40/19 33/39/17 
f 25/28/18 27/31/20 35/41/20 34/40/19 
f 27/31/20 22/30/12 29/34/12 35/41/20 
s 1
f 36/42/21 35/41/21 29/34/21 28/33/21 
f 36/42/21 28/36/21 30/35/21 31/37/21 
f 36/42/21 31/37/21 32/38/21 33/39/21 
f 36/42/21 33/39/21 34/40/21 35/41/21 
# 16 polygons

#
# object Box001
#

v  0.0989 62.0725 0.6744
v  0.0989 62.0725 -0.6744
v  5.7674 62.0725 -0.6744
v  5.7674 62.0725 0.6744
v  0.0989 65.1600 0.6744
v  5.7674 65.1600 0.6744
v  5.7674 65.1600 -0.6744
v  0.0989 65.1600 -0.6744
# 8 vertices

vn 0.0000 -1.0000 -0.0000
vn 0.0000 1.0000 -0.0000
vn 0.0000 0.0000 1.0000
vn 1.0000 0.0000 -0.0000
vn 0.0000 0.0000 -1.0000
vn -1.0000 0.0000 -0.0000
# 6 vertex normals

vt 1.0000 0.0000 0.0000
vt 1.0000 1.0000 0.0000
vt 0.0000 1.0000 0.0000
vt 0.0000 0.0000 0.0000
# 4 texture coords

g Box001
s 2
f 37/43/22 38/44/22 39/45/22 40/46/22 
s 4
f 41/46/23 42/43/23 43/44/23 44/45/23 
s 8
f 37/46/24 40/43/24 42/44/24 41/45/24 
s 16
f 40/46/25 39/43/25 43/44/25 42/45/25 
s 32
f 39/46/26 38/43/26 44/44/26 43/45/26 
s 64
f 38/46/27 37/43/27 41/44/27 44/45/27 
# 6 polygons

#
# object Box002
#

v  2.8196 53.4940 0.1085
v  2.8196 53.4940 -0.1085
v  10.7554 53.8083 -0.1085
v  10.7554 53.8083 0.1085
v  18.0738 53.9750 -0.1085
v  18.0738 53.9750 0.1085
v  25.3923 53.8083 -0.1085
v  25.3923 53.8083 0.1085
v  32.7108 53.4940 -0.1085
v  32.7108 53.4940 0.1085
v  2.8196 168.7499 0.1085
v  10.7554 167.9168 0.1085
v  10.7554 167.9168 -0.1085
v  2.8196 168.7499 -0.1085
v  18.0738 167.4855 0.1085
v  18.0738 167.4855 -0.1085
v  25.3923 167.9168 0.1085
v  25.3923 167.9168 -0.1085
v  32.7108 168.7499 0.1085
v  32.7108 168.7499 -0.1085
v  10.7554 82.2076 0.1085
v  3.4369 82.2076 0.1085
v  18.0738 82.2076 0.1085
v  25.3923 82.2076 0.1085
v  32.0450 82.2076 0.1085
v  10.7554 110.9213 0.1085
v  3.7511 110.9213 0.1085
v  18.0738 110.9213 0.1085
v  25.3923 110.9213 0.1085
v  31.3803 110.9213 0.1085
v  10.7554 139.6349 0.1085
v  3.4369 139.6349 0.1085
v  18.0738 139.6349 0.1085
v  25.3923 139.6349 0.1085
v  32.0450 139.6349 0.1085
v  32.0450 82.2076 -0.1085
v  31.3803 110.9213 -0.1085
v  32.0450 139.6349 -0.1085
v  25.3923 82.2076 -0.1085
v  18.0738 82.2076 -0.1085
v  10.7554 82.2076 -0.1085
v  3.4369 82.2076 -0.1085
v  25.3923 110.9213 -0.1085
v  18.0738 110.9213 -0.1085
v  10.7554 110.9213 -0.1085
v  3.7511 110.9213 -0.1085
v  25.3923 139.6349 -0.1085
v  18.0738 139.6349 -0.1085
v  10.7554 139.6349 -0.1085
v  3.4369 139.6349 -0.1085
# 50 vertices

vn 0.0561 -0.9984 -0.0000
vn 0.0442 -0.9990 -0.0000
vn 0.0000 -1.0000 -0.0000
vn -0.0000 -1.0000 -0.0000
vn -0.0466 -0.9989 -0.0000
vn -0.0608 -0.9981 -0.0000
vn 0.1473 0.9891 -0.0000
vn 0.1154 0.9933 -0.0000
vn 0.0000 1.0000 -0.0000
vn -0.1215 0.9926 -0.0000
vn -0.1595 0.9872 -0.0000
vn -0.0000 0.0000 1.0000
vn 0.0000 0.0000 1.0000
vn -0.0000 -0.0000 1.0000
vn 0.0000 -0.0000 1.0000
vn 0.9999 0.0163 -0.0000
vn 1.0000 -0.0000 -0.0000
vn 1.0000 0.0000 -0.0000
vn 0.9999 -0.0162 -0.0000
vn 0.9999 -0.0161 -0.0000
vn -0.0000 -0.0000 -1.0000
vn 0.0000 0.0000 -1.0000
vn 0.0000 -0.0000 -1.0000
vn -0.9999 0.0151 -0.0000
vn -0.9999 0.0114 -0.0000
vn -1.0000 0.0000 -0.0000
vn -0.9999 -0.0113 -0.0000
vn -0.9999 -0.0149 -0.0000
# 28 vertex normals

vt 1.0000 0.0000 0.0000
vt 1.0000 1.0000 0.0000
vt 0.7500 1.0000 0.0000
vt 0.7500 0.0000 0.0000
vt 0.5000 1.0000 0.0000
vt 0.5000 0.0000 0.0000
vt 0.2500 1.0000 0.0000
vt 0.2500 0.0000 0.0000
vt 0.0000 1.0000 0.0000
vt 0.0000 0.0000 0.0000
vt 0.2500 0.2500 0.0000
vt 0.0000 0.2500 0.0000
vt 0.5000 0.2500 0.0000
vt 0.7500 0.2500 0.0000
vt 1.0000 0.2500 0.0000
vt 0.2500 0.5000 0.0000
vt 0.0000 0.5000 0.0000
vt 0.5000 0.5000 0.0000
vt 0.7500 0.5000 0.0000
vt 1.0000 0.5000 0.0000
vt 0.2500 0.7500 0.0000
vt 0.0000 0.7500 0.0000
vt 0.5000 0.7500 0.0000
vt 0.7500 0.7500 0.0000
vt 1.0000 0.7500 0.0000
# 25 texture coords

g Box002
s 2
f 45/47/28 46/48/28 47/49/29 48/50/29 
f 48/50/29 47/49/29 49/51/30 50/52/31 
f 50/52/31 49/51/30 51/53/32 52/54/32 
f 52/54/32 51/53/32 53/55/33 54/56/33 
s 4
f 55/56/34 56/54/35 57/53/35 58/55/34 
f 56/54/35 59/52/36 60/51/36 57/53/35 
f 59/52/36 61/50/37 62/49/37 60/51/36 
f 61/50/37 63/47/38 64/48/38 62/49/37 
s 8
f 45/56/39 48/54/39 65/57/39 66/58/40 
f 48/54/39 50/52/39 67/59/39 65/57/39 
f 50/52/39 52/50/40 68/60/40 67/59/39 
f 52/50/40 54/47/40 69/61/40 68/60/40 
f 66/58/40 65/57/39 70/62/40 71/63/40 
f 65/57/39 67/59/39 72/64/40 70/62/40 
f 67/59/39 68/60/40 73/65/41 72/64/40 
f 68/60/40 69/61/40 74/66/41 73/65/41 
f 71/63/40 70/62/40 75/67/40 76/68/40 
f 70/62/40 72/64/40 77/69/39 75/67/40 
f 72/64/40 73/65/41 78/70/39 77/69/39 
f 73/65/41 74/66/41 79/71/39 78/70/39 
f 76/68/40 75/67/40 56/53/40 55/55/42 
f 75/67/40 77/69/39 59/51/39 56/53/40 
f 77/69/39 78/70/39 61/49/39 59/51/39 
f 78/70/39 79/71/39 63/48/39 61/49/39 
s 16
f 54/56/43 53/47/43 80/61/43 69/58/43 
f 69/58/43 80/61/43 81/66/44 74/63/45 
f 74/63/45 81/66/44 82/71/46 79/68/46 
f 79/68/46 82/71/46 64/48/47 63/55/47 
s 32
f 53/56/48 51/54/48 83/57/48 80/58/49 
f 51/54/48 49/52/48 84/59/48 83/57/48 
f 49/52/48 47/50/50 85/60/50 84/59/48 
f 47/50/50 46/47/50 86/61/50 85/60/50 
f 80/58/49 83/57/48 87/62/49 81/63/49 
f 83/57/48 84/59/48 88/64/49 87/62/49 
f 84/59/48 85/60/50 89/65/49 88/64/49 
f 85/60/50 86/61/50 90/66/49 89/65/49 
f 81/63/49 87/62/49 91/67/50 82/68/50 
f 87/62/49 88/64/49 92/69/48 91/67/50 
f 88/64/49 89/65/49 93/70/48 92/69/48 
f 89/65/49 90/66/49 94/71/49 93/70/48 
f 82/68/50 91/67/50 62/53/50 64/55/50 
f 91/67/50 92/69/48 60/51/48 62/53/50 
f 92/69/48 93/70/48 57/49/48 60/51/48 
f 93/70/48 94/71/49 58/48/48 57/49/48 
s 64
f 46/56/51 45/47/51 66/61/52 86/58/52 
f 86/58/52 66/61/52 71/66/53 90/63/53 
f 90/63/53 71/66/53 76/71/54 94/68/54 
f 94/68/54 76/71/54 55/48/55 58/55/55 
# 48 polygons

#
# object Box003
#

v  0.0989 94.0050 0.6744
v  0.0989 94.0050 -0.6744
v  5.7674 94.0050 -0.6744
v  5.7674 94.0050 0.6744
v  0.0989 97.0924 0.6744
v  5.7674 97.0924 0.6744
v  5.7674 97.0924 -0.6744
v  0.0989 97.0924 -0.6744
# 8 vertices

vn 0.0000 -1.0000 -0.0000
vn 0.0000 1.0000 -0.0000
vn 0.0000 0.0000 1.0000
vn 1.0000 0.0000 -0.0000
vn 0.0000 0.0000 -1.0000
vn -1.0000 0.0000 -0.0000
# 6 vertex normals

vt 1.0000 0.0000 0.0000
vt 1.0000 1.0000 0.0000
vt 0.0000 1.0000 0.0000
vt 0.0000 0.0000 0.0000
# 4 texture coords

g Box003
s 2
f 95/72/56 96/73/56 97/74/56 98/75/56 
s 4
f 99/75/57 100/72/57 101/73/57 102/74/57 
s 8
f 95/75/58 98/72/58 100/73/58 99/74/58 
s 16
f 98/75/59 97/72/59 101/73/59 100/74/59 
s 32
f 97/75/60 96/72/60 102/73/60 101/74/60 
s 64
f 96/75/61 95/72/61 99/73/61 102/74/61 
# 6 polygons

#
# object Box004
#

v  0.0989 129.2545 0.6744
v  0.0989 129.2545 -0.6744
v  5.7674 129.2545 -0.6744
v  5.7674 129.2545 0.6744
v  0.0989 132.3420 0.6744
v  5.7674 132.3420 0.6744
v  5.7674 132.3420 -0.6744
v  0.0989 132.3420 -0.6744
# 8 vertices

vn 0.0000 -1.0000 -0.0000
vn 0.0000 1.0000 -0.0000
vn 0.0000 0.0000 1.0000
vn 1.0000 0.0000 -0.0000
vn 0.0000 0.0000 -1.0000
vn -1.0000 0.0000 -0.0000
# 6 vertex normals

vt 1.0000 0.0000 0.0000
vt 1.0000 1.0000 0.0000
vt 0.0000 1.0000 0.0000
vt 0.0000 0.0000 0.0000
# 4 texture coords

g Box004
s 2
f 103/76/62 104/77/62 105/78/62 106/79/62 
s 4
f 107/79/63 108/76/63 109/77/63 110/78/63 
s 8
f 103/79/64 106/76/64 108/77/64 107/78/64 
s 16
f 106/79/65 105/76/65 109/77/65 108/78/65 
s 32
f 105/79/66 104/76/66 110/77/66 109/78/66 
s 64
f 104/79/67 103/76/67 107/77/67 110/78/67 
# 6 polygons

#
# object Box005
#

v  0.0989 163.8288 0.6745
v  0.0989 163.8288 -0.6744
v  5.7674 163.8288 -0.6744
v  5.7674 163.8288 0.6745
v  0.0989 166.9163 0.6745
v  5.7674 166.9163 0.6745
v  5.7674 166.9163 -0.6744
v  0.0989 166.9163 -0.6744
# 8 vertices

vn 0.0000 -1.0000 -0.0000
vn 0.0000 1.0000 -0.0000
vn 0.0000 0.0000 1.0000
vn 1.0000 0.0000 -0.0000
vn 0.0000 0.0000 -1.0000
vn -1.0000 0.0000 -0.0000
# 6 vertex normals

vt 1.0000 0.0000 0.0000
vt 1.0000 1.0000 0.0000
vt 0.0000 1.0000 0.0000
vt 0.0000 0.0000 0.0000
# 4 texture coords

g Box005
s 2
f 111/80/68 112/81/68 113/82/68 114/83/68 
s 4
f 115/83/69 116/80/69 117/81/69 118/82/69 
s 8
f 111/83/70 114/80/70 116/81/70 115/82/70 
s 16
f 114/83/71 113/80/71 117/81/71 116/82/71 
s 32
f 113/83/72 112/80/72 118/81/72 117/82/72 
s 64
f 112/83/73 111/80/73 115/81/73 118/82/73 
# 6 polygons

#
# object Box006
#

v  29.0103 171.0115 0.5439
v  29.0103 171.0115 -0.5439
v  29.0103 165.3430 -0.5439
v  29.0103 165.3430 0.5439
v  31.2052 171.0115 0.5439
v  31.2052 165.3430 0.5439
v  31.2052 165.3430 -0.5439
v  31.2052 171.0115 -0.5439
# 8 vertices

vn -1.0000 0.0000 -0.0000
vn 1.0000 -0.0000 -0.0000
vn 0.0000 0.0000 1.0000
vn -0.0000 -1.0000 -0.0000
vn 0.0000 0.0000 -1.0000
vn 0.0000 1.0000 -0.0000
# 6 vertex normals

vt 1.0000 0.0000 0.0000
vt 1.0000 1.0000 0.0000
vt 0.0000 1.0000 0.0000
vt 0.0000 0.0000 0.0000
# 4 texture coords

g Box006
s 2
f 119/84/74 120/85/74 121/86/74 122/87/74 
s 4
f 123/87/75 124/84/75 125/85/75 126/86/75 
s 8
f 119/87/76 122/84/76 124/85/76 123/86/76 
s 16
f 122/87/77 121/84/77 125/85/77 124/86/77 
s 32
f 121/87/78 120/84/78 126/85/78 125/86/78 
s 64
f 120/87/79 119/84/79 123/85/79 126/86/79 
# 6 polygons

#
# object Box007
#

v  4.1521 171.0115 0.5439
v  4.1521 171.0115 -0.5439
v  4.1521 165.3430 -0.5439
v  4.1521 165.3430 0.5439
v  6.3470 171.0115 0.5439
v  6.3470 165.3430 0.5439
v  6.3470 165.3430 -0.5439
v  6.3470 171.0115 -0.5439
# 8 vertices

vn -1.0000 0.0000 -0.0000
vn 1.0000 -0.0000 -0.0000
vn 0.0000 0.0000 1.0000
vn -0.0000 -1.0000 -0.0000
vn 0.0000 0.0000 -1.0000
vn 0.0000 1.0000 -0.0000
# 6 vertex normals

vt 1.0000 0.0000 0.0000
vt 1.0000 1.0000 0.0000
vt 0.0000 1.0000 0.0000
vt 0.0000 0.0000 0.0000
# 4 texture coords

g Box007
s 2
f 127/88/80 128/89/80 129/90/80 130/91/80 
s 4
f 131/91/81 132/88/81 133/89/81 134/90/81 
s 8
f 127/91/82 130/88/82 132/89/82 131/90/82 
s 16
f 130/91/83 129/88/83 133/89/83 132/90/83 
s 32
f 129/91/84 128/88/84 134/89/84 133/90/84 
s 64
f 128/91/85 127/88/85 131/89/85 134/90/85 
# 6 polygons

